<?xml version="1.0" standalone="no"?><!-- Generator: Gravit.io --><svg xmlns="http://www.w3.org/2000/svg" xmlns:xlink="http://www.w3.org/1999/xlink" style="isolation:isolate" viewBox="0 0 200 200" width="200" height="200"><g><g><path d=" M 63.462 85.385 L 57.266 85.385 C 61.976 77.213 67.872 68.906 72.837 63.061 C 80.673 53.841 79.575 40.011 70.355 32.168 C 66.231 28.65 61.178 26.923 56.154 26.923 C 49.959 26.923 43.822 29.528 39.483 34.609 C 33.717 41.352 5 70.769 5 107.308 L 5 143.846 C 5 159.989 18.088 173.077 34.231 173.077 L 63.462 173.077 C 79.604 173.077 92.692 159.989 92.692 143.846 L 92.692 114.615 C 92.692 98.473 79.604 85.385 63.462 85.385 Z  M 78.077 143.846 C 78.077 151.903 71.526 158.462 63.462 158.462 L 34.231 158.462 C 26.181 158.462 19.615 151.903 19.615 143.846 L 19.615 107.308 C 19.615 79.084 41.538 54.349 48.733 46.219 L 50.602 44.1 C 52.5 41.875 54.899 41.538 56.154 41.538 C 57.367 41.538 59.179 41.845 60.893 43.301 C 63.948 45.907 64.318 50.523 61.693 53.6 C 55.898 60.429 49.504 69.578 44.608 78.084 C 41.995 82.61 41.995 88.174 44.622 92.7 C 47.218 97.218 52.043 100 57.266 100 L 63.462 100 C 71.526 100 78.077 106.559 78.077 114.615 L 78.077 143.846 Z  M 165.769 85.385 L 159.574 85.385 C 164.284 77.213 170.179 68.906 175.145 63.061 C 182.981 53.841 181.883 40.011 172.662 32.168 C 168.539 28.65 163.486 26.923 158.447 26.923 C 152.266 26.923 146.115 29.528 141.791 34.609 C 136.025 41.352 107.308 70.769 107.308 107.308 L 107.308 143.846 C 107.308 159.989 120.396 173.077 136.538 173.077 L 165.769 173.077 C 181.912 173.077 195 159.989 195 143.846 L 195 114.615 C 195 98.473 181.912 85.385 165.769 85.385 Z  M 180.385 143.846 C 180.385 151.903 173.833 158.462 165.769 158.462 L 136.538 158.462 C 128.474 158.462 121.923 151.903 121.923 143.846 L 121.923 107.308 C 121.923 79.062 143.846 54.327 151.053 46.206 L 152.91 44.094 C 154.808 41.875 157.192 41.538 158.447 41.538 C 159.675 41.538 161.487 41.845 163.201 43.301 C 166.255 45.907 166.626 50.523 164.014 53.6 C 158.204 60.429 151.81 69.578 146.915 78.084 C 144.303 82.61 144.303 88.174 146.915 92.7 C 149.528 97.218 154.351 100 159.576 100 L 165.769 100 C 173.833 100 180.385 106.559 180.385 114.615 L 180.385 143.846 Z " fill="rgb(30,30,36)"/></g></g></svg>