<?xml version="1.0" standalone="no"?><!-- Generator: Gravit.io --><svg xmlns="http://www.w3.org/2000/svg" xmlns:xlink="http://www.w3.org/1999/xlink" style="isolation:isolate" viewBox="0 0 400 400" width="400" height="400"><path d=" M 214.742 226.128 L 199.734 225.984 L 184.727 225.84 L 177.356 212.776 L 169.985 199.712 L 177.621 186.792 L 185.258 173.872 L 200.266 174.016 L 215.273 174.16 L 222.644 187.224 L 230.015 200.288 L 222.379 213.208 L 214.742 226.128 Z  M 195.086 191.291 C 199.893 188.579 205.997 190.279 208.709 195.086 C 211.421 199.893 209.721 205.997 204.914 208.709 C 200.107 211.421 194.003 209.721 191.291 204.914 C 188.579 200.107 190.279 194.003 195.086 191.291 Z " fill-rule="evenodd" fill="rgb(91,92,94)" vector-effect="non-scaling-stroke" stroke-width="3" stroke="rgb(54,54,53)" stroke-linejoin="miter" stroke-linecap="square" stroke-miterlimit="3"/><g><g><g><radialGradient id="_rgradient_1" fx="0.5" fy="0.5" cx="0.5" cy="0.5" r="0.5" gradientTransform="matrix(2.956,99.974,-207.428,6.133,214.067,148.953)" gradientUnits="userSpaceOnUse"><stop offset="0%" stop-opacity="1" style="stop-color:rgb(91,92,94)"/><stop offset="98.26086956521739%" stop-opacity="1" style="stop-color:rgb(157,157,157)"/></radialGradient><path d=" M 8 201.103 L 131.122 194.905 C 138.359 176.355 156.638 150.651 176.618 150.06 C 194.629 149.527 205.263 151.057 214.587 166.535 L 182.069 166.045 L 161.307 199.289 L 181.925 233.846 L 216.127 234.317 C 207.731 250.319 197.584 249.484 179.574 250.016 C 159.593 250.607 140.299 225.17 131.978 207.081 L 9.457 216.297 L 8 201.103 Z " fill="url(#_rgradient_1)" vector-effect="non-scaling-stroke" stroke-width="3" stroke="rgb(54,54,53)" stroke-linejoin="miter" stroke-linecap="butt" stroke-miterlimit="4"/></g></g></g></svg>