<?xml version="1.0" standalone="no"?><!-- Generator: Gravit.io --><svg xmlns="http://www.w3.org/2000/svg" xmlns:xlink="http://www.w3.org/1999/xlink" style="isolation:isolate" viewBox="0 0 240 240" width="240" height="240"><g><g><linearGradient id="_lgradient_0" x1="0" y1="0.5" x2="1.3073979591836733" y2="0.5066225452830737" gradientTransform="matrix(230,0,0,132.905,5,66.54)" gradientUnits="userSpaceOnUse"><stop offset="0%" stop-opacity="1" style="stop-color:rgb(30,30,36)"/><stop offset="100%" stop-opacity="1" style="stop-color:rgb(0,0,0)"/></linearGradient><path d=" M 115 66.54 L 5 130.048 L 125 199.444 L 235 135.822 L 115 66.54 L 115 66.54 Z " fill="url(#_lgradient_0)"/><path d=" M 5 130.048 L 5 135.822 L 125 205.104 L 125 199.33 L 5 130.048 Z " fill="rgb(12,12,15)"/><linearGradient id="_lgradient_1" x1="0" y1="0.5" x2="1.3073979591836733" y2="0.5066225452830737" gradientTransform="matrix(110,0,0,69.282,125,135.822)" gradientUnits="userSpaceOnUse"><stop offset="0%" stop-opacity="1" style="stop-color:rgb(30,30,36)"/><stop offset="100%" stop-opacity="1" style="stop-color:rgb(0,0,0)"/></linearGradient><path d=" M 235 135.822 L 235 141.595 L 125 205.104 L 125 199.33 L 235 135.822 Z " fill="url(#_lgradient_1)"/></g><defs><filter id="Kg0T5DfiHNw9k6FCJqJbP7BpQNNdRky5" x="-200%" y="-200%" width="400%" height="400%" filterUnits="objectBoundingBox" color-interpolation-filters="sRGB"><feGaussianBlur xmlns="http://www.w3.org/2000/svg" stdDeviation="1.2880827188517086"/></filter></defs><g filter="url(#Kg0T5DfiHNw9k6FCJqJbP7BpQNNdRky5)"><path d=" M 155 127.272 L 165 133.046 L 175 127.272 L 195 138.819" fill="none" vector-effect="non-scaling-stroke" stroke-width="2" stroke="rgb(255,255,255)" stroke-linejoin="miter" stroke-linecap="square" stroke-miterlimit="3"/></g><path d=" M 155 127.272 L 165 133.046 L 175 127.272 L 195 138.819" fill="none" vector-effect="non-scaling-stroke" stroke-width="2" stroke="rgb(255,255,255)" stroke-linejoin="miter" stroke-linecap="square" stroke-miterlimit="3"/><defs><filter id="LjgkaUacUEQ2ZO9lJrAtYPqu47As2NTr" x="-200%" y="-200%" width="400%" height="400%" filterUnits="objectBoundingBox" color-interpolation-filters="sRGB"><feGaussianBlur xmlns="http://www.w3.org/2000/svg" stdDeviation="1.2880827188517086"/></filter></defs><g filter="url(#LjgkaUacUEQ2ZO9lJrAtYPqu47As2NTr)"><path d=" M 120 112.839 L 100 101.292 L 55 127.272" fill="none" vector-effect="non-scaling-stroke" stroke-width="2" stroke="rgb(255,255,255)" stroke-linejoin="miter" stroke-linecap="square" stroke-miterlimit="3"/></g><path d=" M 120 112.839 L 100 101.292 L 55 127.272" fill="none" vector-effect="non-scaling-stroke" stroke-width="2" stroke="rgb(255,255,255)" stroke-linejoin="miter" stroke-linecap="square" stroke-miterlimit="3"/><g><defs><filter id="7b7KPQHuy11O34rKlGx42wPiGMyWw5xI" x="-200%" y="-200%" width="400%" height="400%" filterUnits="objectBoundingBox" color-interpolation-filters="sRGB"><feGaussianBlur xmlns="http://www.w3.org/2000/svg" stdDeviation="1.2880827188517086"/></filter></defs><g filter="url(#7b7KPQHuy11O34rKlGx42wPiGMyWw5xI)"><path d=" M 142.77 134.367 L 165 147.224 L 148.491 156.762" fill="none" vector-effect="non-scaling-stroke" stroke-width="2" stroke="rgb(255,255,255)" stroke-linejoin="miter" stroke-linecap="square" stroke-miterlimit="3"/></g><path d=" M 142.77 134.367 L 165 147.224 L 148.491 156.762" fill="none" vector-effect="non-scaling-stroke" stroke-width="2" stroke="rgb(255,255,255)" stroke-linejoin="miter" stroke-linecap="square" stroke-miterlimit="3"/></g><g><g><g><g><linearGradient id="_lgradient_2" x1="0" y1="0.5" x2="1" y2="0.5" gradientTransform="matrix(60,0,0,34.641,104.992,69.537)" gradientUnits="userSpaceOnUse"><stop offset="0%" stop-opacity="1" style="stop-color:rgb(46,75,219)"/><stop offset="100%" stop-opacity="1" style="stop-color:rgb(0,206,247)"/></linearGradient><path d=" M 104.992 86.858 L 134.992 69.537 L 164.992 86.858 L 134.992 104.178 L 104.992 86.858 Z " fill="url(#_lgradient_2)"/><linearGradient id="_lgradient_3" x1="0" y1="0.5" x2="1" y2="0.5" gradientTransform="matrix(30,0,0,51.962,134.992,86.858)" gradientUnits="userSpaceOnUse"><stop offset="0%" stop-opacity="1" style="stop-color:rgb(46,75,219)"/><stop offset="100%" stop-opacity="1" style="stop-color:rgb(0,206,247)"/></linearGradient><path d=" M 164.992 121.499 L 134.992 138.819 L 134.992 104.178 L 164.992 86.858" fill="url(#_lgradient_3)"/><linearGradient id="_lgradient_4" x1="0" y1="0.5" x2="1" y2="0.5" gradientTransform="matrix(50,0,0,28.868,84.992,57.99)" gradientUnits="userSpaceOnUse"><stop offset="0%" stop-opacity="1" style="stop-color:rgb(46,75,219)"/><stop offset="100%" stop-opacity="1" style="stop-color:rgb(0,206,247)"/></linearGradient><path d=" M 104.992 86.858 L 84.992 75.311 L 114.992 57.99 L 134.992 69.537 L 104.992 86.858 Z " fill="url(#_lgradient_4)"/><linearGradient id="_lgradient_5" x1="0" y1="0.5" x2="1" y2="0.5" gradientTransform="matrix(50,0,0,28.868,134.992,86.858)" gradientUnits="userSpaceOnUse"><stop offset="0%" stop-opacity="1" style="stop-color:rgb(46,75,219)"/><stop offset="100%" stop-opacity="1" style="stop-color:rgb(0,206,247)"/></linearGradient><path d=" M 184.992 98.405 L 164.992 86.858 L 134.992 104.178 L 154.992 115.725 L 184.992 98.405 Z " fill="url(#_lgradient_5)"/><linearGradient id="_lgradient_6" x1="0.5" y1="1" x2="0.5000651041666669" y2="0.14970370889161844" gradientTransform="matrix(60,0,0,69.282,104.992,34.896)" gradientUnits="userSpaceOnUse"><stop offset="0%" stop-opacity="1" style="stop-color:rgb(255,255,255)"/><stop offset="100%" stop-opacity="0" style="stop-color:rgb(21,21,26)"/></linearGradient><path d=" M 104.992 86.858 L 104.992 52.217 L 134.992 34.896 L 164.992 52.217 L 164.992 86.858 L 134.992 104.178 L 104.992 86.858 Z " fill="url(#_lgradient_6)"/><linearGradient id="_lgradient_7" x1="1.0834635416666667" y1="-0.16749868241512583" x2="0.26225392345814946" y2="0.7581854481533896" gradientTransform="matrix(60,0,0,34.641,74.992,121.499)" gradientUnits="userSpaceOnUse"><stop offset="0%" stop-opacity="1" style="stop-color:rgb(0,0,0)"/><stop offset="98.69565217391305%" stop-opacity="0" style="stop-color:rgb(0,0,0)"/></linearGradient><path d=" M 134.992 138.819 L 104.992 156.14 L 74.992 138.819 L 104.992 121.499 L 134.992 138.819 Z " fill="url(#_lgradient_7)"/></g><path d=" M 85.008 75.312 L 85.004 76.435 L 105.012 88.021 L 105.012 86.843 L 85.008 75.312 Z " fill="rgb(38,62,185)"/><linearGradient id="_lgradient_8" x1="0" y1="0.5" x2="1" y2="0.5" gradientTransform="matrix(29.984,0,0,18.41,155.016,98.409)" gradientUnits="userSpaceOnUse"><stop offset="0%" stop-opacity="1" style="stop-color:rgb(46,75,219)"/><stop offset="100%" stop-opacity="1" style="stop-color:rgb(0,206,247)"/></linearGradient><path d=" M 184.988 98.409 L 185 99.511 L 155.016 116.82 L 155.016 115.718 L 184.988 98.409 Z " fill="url(#_lgradient_8)"/><path d=" M 134.996 104.179 L 155.023 115.714 L 155.016 116.827 L 134.991 105.3 L 134.996 104.179 Z " fill="rgb(38,62,185)"/></g><g><defs><filter id="QDjdaIOfYeqVXVoKqjDTIU9oUEnr3kHH" x="-200%" y="-200%" width="400%" height="400%" filterUnits="objectBoundingBox" color-interpolation-filters="sRGB"><feGaussianBlur xmlns="http://www.w3.org/2000/svg" stdDeviation="1.2880827188517086"/></filter></defs><g filter="url(#QDjdaIOfYeqVXVoKqjDTIU9oUEnr3kHH)"><circle vector-effect="non-scaling-stroke" cx="145.5" cy="62.263882064562694" r="0.5" fill="rgb(255,255,255)"/></g><circle vector-effect="non-scaling-stroke" cx="145.5" cy="62.263882064562694" r="0.5" fill="rgb(255,255,255)"/></g><g><defs><filter id="FaIiW25Nu425ZVA5CY6XamEzqVcbUvyD" x="-200%" y="-200%" width="400%" height="400%" filterUnits="objectBoundingBox" color-interpolation-filters="sRGB"><feGaussianBlur xmlns="http://www.w3.org/2000/svg" stdDeviation="1.2880827188517086"/></filter></defs><g filter="url(#FaIiW25Nu425ZVA5CY6XamEzqVcbUvyD)"><circle vector-effect="non-scaling-stroke" cx="135" cy="81.08439014025146" r="1" fill="rgb(255,255,255)"/></g><circle vector-effect="non-scaling-stroke" cx="135" cy="81.08439014025146" r="1" fill="rgb(255,255,255)"/></g><g><defs><filter id="kovZe7CuuXw0RoVNplI3nU5OH061V6mV" x="-200%" y="-200%" width="400%" height="400%" filterUnits="objectBoundingBox" color-interpolation-filters="sRGB"><feGaussianBlur xmlns="http://www.w3.org/2000/svg" stdDeviation="1.2880827188517086"/></filter></defs><g filter="url(#kovZe7CuuXw0RoVNplI3nU5OH061V6mV)"><circle vector-effect="non-scaling-stroke" cx="114.5" cy="74.8108874483552" r="0.5" fill="rgb(255,255,255)"/></g><circle vector-effect="non-scaling-stroke" cx="114.5" cy="74.8108874483552" r="0.5" fill="rgb(255,255,255)"/></g><g><defs><filter id="VnxCCwio3mpXnzIUKorhh0T84iIxZea2" x="-200%" y="-200%" width="400%" height="400%" filterUnits="objectBoundingBox" color-interpolation-filters="sRGB"><feGaussianBlur xmlns="http://www.w3.org/2000/svg" stdDeviation="1.2880827188517086"/></filter></defs><g filter="url(#VnxCCwio3mpXnzIUKorhh0T84iIxZea2)"><circle vector-effect="non-scaling-stroke" cx="140" cy="95.51814686999211" r="1" fill="rgb(255,255,255)"/></g><circle vector-effect="non-scaling-stroke" cx="140" cy="95.51814686999211" r="1" fill="rgb(255,255,255)"/></g><g><defs><filter id="sZydtV5afGCgrsR2O6DJFEFqRjZeVRNa" x="-200%" y="-200%" width="400%" height="400%" filterUnits="objectBoundingBox" color-interpolation-filters="sRGB"><feGaussianBlur xmlns="http://www.w3.org/2000/svg" stdDeviation="1.2880827188517086"/></filter></defs><g filter="url(#sZydtV5afGCgrsR2O6DJFEFqRjZeVRNa)"><circle vector-effect="non-scaling-stroke" cx="155" cy="75.3108874483552" r="1" fill="rgb(255,255,255)"/></g><circle vector-effect="non-scaling-stroke" cx="155" cy="75.3108874483552" r="1" fill="rgb(255,255,255)"/></g><g><defs><filter id="4kJl6j2RjCgsQb4tpNsCvah1G66L22sK" x="-200%" y="-200%" width="400%" height="400%" filterUnits="objectBoundingBox" color-interpolation-filters="sRGB"><feGaussianBlur xmlns="http://www.w3.org/2000/svg" stdDeviation="1.2880827188517086"/></filter></defs><g filter="url(#4kJl6j2RjCgsQb4tpNsCvah1G66L22sK)"><circle vector-effect="non-scaling-stroke" cx="124.5" cy="86.35789283214771" r="0.5" fill="rgb(255,255,255)"/></g><circle vector-effect="non-scaling-stroke" cx="124.5" cy="86.35789283214771" r="0.5" fill="rgb(255,255,255)"/></g><g><defs><filter id="ekUN6aFY3vTEW2qILzQM18i0COgvj5LS" x="-200%" y="-200%" width="400%" height="400%" filterUnits="objectBoundingBox" color-interpolation-filters="sRGB"><feGaussianBlur xmlns="http://www.w3.org/2000/svg" stdDeviation="1.2880827188517086"/></filter></defs><g filter="url(#ekUN6aFY3vTEW2qILzQM18i0COgvj5LS)"><circle vector-effect="non-scaling-stroke" cx="130" cy="66.65063341051084" r="1" fill="rgb(255,255,255)"/></g><circle vector-effect="non-scaling-stroke" cx="130" cy="66.65063341051084" r="1" fill="rgb(255,255,255)"/></g><g><defs><filter id="AX6MvKjRPiHBwbnpt1AiluHkRje9I9ng" x="-200%" y="-200%" width="400%" height="400%" filterUnits="objectBoundingBox" color-interpolation-filters="sRGB"><feGaussianBlur xmlns="http://www.w3.org/2000/svg" stdDeviation="1.2880827188517086"/></filter></defs><g filter="url(#AX6MvKjRPiHBwbnpt1AiluHkRje9I9ng)"><circle vector-effect="non-scaling-stroke" cx="135" cy="52.216876680770184" r="1" fill="rgb(255,255,255)"/></g><circle vector-effect="non-scaling-stroke" cx="135" cy="52.216876680770184" r="1" fill="rgb(255,255,255)"/></g><g><defs><filter id="TiVMbP6Pb8F9WoMRveA4YEeOTIXZqlzM" x="-200%" y="-200%" width="400%" height="400%" filterUnits="objectBoundingBox" color-interpolation-filters="sRGB"><feGaussianBlur xmlns="http://www.w3.org/2000/svg" stdDeviation="1.2880827188517086"/></filter></defs><g filter="url(#TiVMbP6Pb8F9WoMRveA4YEeOTIXZqlzM)"><circle vector-effect="non-scaling-stroke" cx="139.5" cy="71.92413610240709" r="0.5" fill="rgb(255,255,255)"/></g><circle vector-effect="non-scaling-stroke" cx="139.5" cy="71.92413610240709" r="0.5" fill="rgb(255,255,255)"/></g><g><defs><filter id="PpWbuCB0VGBJIOV3xnbcmdDFR20YEBj8" x="-200%" y="-200%" width="400%" height="400%" filterUnits="objectBoundingBox" color-interpolation-filters="sRGB"><feGaussianBlur xmlns="http://www.w3.org/2000/svg" stdDeviation="1.2880827188517086"/></filter></defs><g filter="url(#PpWbuCB0VGBJIOV3xnbcmdDFR20YEBj8)"><circle vector-effect="non-scaling-stroke" cx="160" cy="65.65063341051084" r="1" fill="rgb(255,255,255)"/></g><circle vector-effect="non-scaling-stroke" cx="160" cy="65.65063341051084" r="1" fill="rgb(255,255,255)"/></g><g><defs><filter id="9XZS07oPttmB9uPkMT6DYGIdjx7ncPcS" x="-200%" y="-200%" width="400%" height="400%" filterUnits="objectBoundingBox" color-interpolation-filters="sRGB"><feGaussianBlur xmlns="http://www.w3.org/2000/svg" stdDeviation="1.2880827188517086"/></filter></defs><g filter="url(#9XZS07oPttmB9uPkMT6DYGIdjx7ncPcS)"><circle vector-effect="non-scaling-stroke" cx="110" cy="66.65063341051084" r="1" fill="rgb(255,255,255)"/></g><circle vector-effect="non-scaling-stroke" cx="110" cy="66.65063341051084" r="1" fill="rgb(255,255,255)"/></g><g><defs><filter id="AzQs8d87S6tBgGRWPeOlrnDYBv2SOLd1" x="-200%" y="-200%" width="400%" height="400%" filterUnits="objectBoundingBox" color-interpolation-filters="sRGB"><feGaussianBlur xmlns="http://www.w3.org/2000/svg" stdDeviation="1.2880827188517086"/></filter></defs><g filter="url(#AzQs8d87S6tBgGRWPeOlrnDYBv2SOLd1)"><circle vector-effect="non-scaling-stroke" cx="149.5" cy="83.4711414861996" r="0.5" fill="rgb(255,255,255)"/></g><circle vector-effect="non-scaling-stroke" cx="149.5" cy="83.4711414861996" r="0.5" fill="rgb(255,255,255)"/></g><g><defs><filter id="ZCvIBmdWwlFN0GViMF2z7JBcgDNnYZ7E" x="-200%" y="-200%" width="400%" height="400%" filterUnits="objectBoundingBox" color-interpolation-filters="sRGB"><feGaussianBlur xmlns="http://www.w3.org/2000/svg" stdDeviation="1.2880827188517086"/></filter></defs><g filter="url(#ZCvIBmdWwlFN0GViMF2z7JBcgDNnYZ7E)"><circle vector-effect="non-scaling-stroke" cx="110" cy="83.9711414861996" r="1" fill="rgb(255,255,255)"/></g><circle vector-effect="non-scaling-stroke" cx="110" cy="83.9711414861996" r="1" fill="rgb(255,255,255)"/></g><g><defs><filter id="Sd1vjRqkPVU29af40Yq0bL2p9lQYr1Ce" x="-200%" y="-200%" width="400%" height="400%" filterUnits="objectBoundingBox" color-interpolation-filters="sRGB"><feGaussianBlur xmlns="http://www.w3.org/2000/svg" stdDeviation="1.2880827188517086"/></filter></defs><g filter="url(#Sd1vjRqkPVU29af40Yq0bL2p9lQYr1Ce)"><circle vector-effect="non-scaling-stroke" cx="119.5" cy="54.6036280267183" r="0.5" fill="rgb(255,255,255)"/></g><circle vector-effect="non-scaling-stroke" cx="119.5" cy="54.6036280267183" r="0.5" fill="rgb(255,255,255)"/></g><g><defs><filter id="xaGczzbWAIpxddwzooAbBhniHuorufUe" x="-200%" y="-200%" width="400%" height="400%" filterUnits="objectBoundingBox" color-interpolation-filters="sRGB"><feGaussianBlur xmlns="http://www.w3.org/2000/svg" stdDeviation="1.2880827188517086"/></filter></defs><g filter="url(#xaGczzbWAIpxddwzooAbBhniHuorufUe)"><circle vector-effect="non-scaling-stroke" cx="150" cy="55.1036280267183" r="1" fill="rgb(255,255,255)"/></g><circle vector-effect="non-scaling-stroke" cx="150" cy="55.1036280267183" r="1" fill="rgb(255,255,255)"/></g><g><path d=" M 104.992 121.499 L 134.992 138.819 L 134.992 104.178 L 104.992 86.858 L 104.992 121.499 Z " fill="rgb(38,62,185)"/><g><path d=" M 128.936 116.67 C 128.907 116.317 128.612 115.892 128.357 115.745 C 127.532 115.269 126.8 114.201 126.493 113.025 C 126.18 111.821 126.382 110.745 126.997 110.348 C 127.19 110.224 127.214 109.843 127.052 109.475 C 126.629 108.516 126.15 107.594 125.626 106.732 C 125.421 106.394 125.12 106.251 124.942 106.411 C 124.405 106.893 123.442 106.631 122.697 105.787 C 121.922 104.905 121.433 103.576 121.481 102.48 C 121.497 102.136 121.304 101.717 121.04 101.523 C 120.367 101.031 119.689 100.637 119.015 100.347 C 118.754 100.235 118.561 100.423 118.569 100.777 C 118.598 101.907 118.104 102.65 117.337 102.626 C 116.601 102.602 115.644 101.757 115.109 100.663 C 114.932 100.302 114.636 100.099 114.43 100.195 C 113.89 100.448 113.4 100.811 112.974 101.273 C 112.808 101.453 112.832 101.867 113.027 102.216 C 113.654 103.334 113.856 104.654 113.531 105.501 C 113.22 106.308 112.452 106.5 111.572 105.992 C 111.287 105.815 111.084 105.954 111.052 106.282 C 110.973 107.137 110.972 108.056 111.049 109.008 C 111.077 109.363 111.381 109.79 111.639 109.939 C 112.423 110.365 113.175 111.446 113.491 112.653 C 113.805 113.857 113.603 114.932 112.987 115.33 C 112.795 115.454 112.77 115.834 112.933 116.202 C 113.351 117.154 113.831 118.077 114.356 118.945 C 114.563 119.285 114.863 119.427 115.041 119.268 C 115.58 118.785 116.543 119.047 117.285 119.89 C 118.062 120.772 118.551 122.101 118.503 123.198 C 118.487 123.542 118.681 123.962 118.944 124.154 C 119.289 124.406 119.634 124.633 119.981 124.833 C 120.311 125.023 120.64 125.189 120.969 125.33 C 121.23 125.443 121.423 125.254 121.415 124.9 C 121.385 123.771 121.88 123.028 122.646 123.052 C 123.387 123.077 124.34 123.922 124.875 125.015 C 125.053 125.376 125.347 125.577 125.554 125.483 C 126.093 125.231 126.582 124.868 127.01 124.404 C 127.177 124.225 127.153 123.812 126.957 123.461 C 126.33 122.343 126.127 121.023 126.453 120.177 C 126.758 119.38 127.498 119.154 128.294 119.613 L 128.405 119.681 C 128.663 119.858 128.901 119.73 128.932 119.397 C 129.011 118.541 129.012 117.623 128.936 116.67 Z  M 119.992 119.757 C 117.126 118.103 114.803 113.664 114.803 109.843 C 114.803 106.023 117.127 104.267 119.992 105.921 C 122.858 107.575 125.181 112.014 125.181 115.835 C 125.181 117.132 124.913 118.19 124.447 118.958 L 122.175 114.617 C 122.339 114.195 122.426 113.685 122.426 113.106 C 122.426 111.973 122.095 110.717 121.494 109.569 C 120.894 108.421 120.095 107.519 119.245 107.029 C 118.962 106.865 118.68 106.752 118.407 106.694 C 118.287 106.668 118.189 106.743 118.158 106.884 C 118.125 107.029 118.162 107.218 118.257 107.401 C 118.257 107.401 119.379 109.555 119.754 110.272 C 119.794 110.347 119.794 110.472 119.788 110.514 L 119.785 110.545 C 119.747 111.073 119.674 111.692 119.614 111.911 C 119.605 111.917 119.598 111.921 119.59 111.928 C 119.581 111.934 119.573 111.941 119.565 111.947 C 119.372 111.918 118.869 111.726 118.45 111.535 L 118.45 111.532 L 118.431 111.527 C 118.428 111.526 118.422 111.523 118.413 111.518 C 118.368 111.492 118.301 111.436 118.241 111.321 C 117.85 110.574 116.772 108.526 116.772 108.526 C 116.676 108.341 116.577 108.257 116.511 108.219 C 116.356 108.13 116.219 108.199 116.175 108.386 C 115.878 109.679 116.193 111.435 116.996 112.97 C 117.597 114.118 118.396 115.02 119.245 115.511 C 119.679 115.761 120.1 115.888 120.488 115.893 L 122.784 120.281 C 121.978 120.503 121.02 120.351 119.992 119.757 Z " fill="rgb(21,21,26)"/></g></g></g><g><path d=" M 117.406 84.809 L 113.746 81.148 L 118.746 79.809 L 122.406 83.469 L 117.406 84.809 Z " fill="rgb(38,62,185)"/><linearGradient id="_lgradient_9" x1="0" y1="0.5" x2="1" y2="0.5" gradientTransform="matrix(6.34,-6.34,3.66,3.66,111.916,79.318)" gradientUnits="userSpaceOnUse"><stop offset="0%" stop-opacity="1" style="stop-color:rgb(46,75,219)"/><stop offset="100%" stop-opacity="1" style="stop-color:rgb(0,206,247)"/></linearGradient><path d=" M 115.086 76.148 L 120.086 74.809 L 118.746 79.809 L 113.746 81.148 L 115.086 76.148 Z " fill="url(#_lgradient_9)"/><linearGradient id="_lgradient_10" x1="0" y1="0.5" x2="1" y2="0.5" gradientTransform="matrix(3.17,-3.17,5.49,5.49,116.916,77.979)" gradientUnits="userSpaceOnUse"><stop offset="0%" stop-opacity="1" style="stop-color:rgb(46,75,219)"/><stop offset="100%" stop-opacity="1" style="stop-color:rgb(0,206,247)"/></linearGradient><path d=" M 120.086 74.809 L 123.746 78.469 L 122.406 83.469 L 118.746 79.809 L 120.086 74.809 Z " fill="url(#_lgradient_10)"/></g><g><path d=" M 125.629 93.091 L 127.51 88.269 L 130.746 92.309 L 128.866 97.131 L 125.629 93.091 Z " fill="rgb(38,62,185)"/><linearGradient id="_lgradient_11" x1="0" y1="0.5" x2="1" y2="0.5" gradientTransform="matrix(8.353,3.257,-1.881,4.823,128.45,85.857)" gradientUnits="userSpaceOnUse"><stop offset="0%" stop-opacity="1" style="stop-color:rgb(46,75,219)"/><stop offset="100%" stop-opacity="1" style="stop-color:rgb(0,206,247)"/></linearGradient><path d=" M 132.627 87.486 L 135.863 91.526 L 130.746 92.309 L 127.51 88.269 L 132.627 87.486 Z " fill="url(#_lgradient_11)"/><linearGradient id="_lgradient_12" x1="0" y1="0.5" x2="1" y2="0.5" gradientTransform="matrix(4.177,1.629,-2.821,7.234,131.686,89.897)" gradientUnits="userSpaceOnUse"><stop offset="0%" stop-opacity="1" style="stop-color:rgb(46,75,219)"/><stop offset="100%" stop-opacity="1" style="stop-color:rgb(0,206,247)"/></linearGradient><path d=" M 135.863 91.526 L 133.982 96.349 L 128.866 97.131 L 130.746 92.309 L 135.863 91.526 Z " fill="url(#_lgradient_12)"/></g><g><path d=" M 147.54 62.106 L 151.759 59.108 L 152.246 64.262 L 148.026 67.26 L 147.54 62.106 Z " fill="rgb(38,62,185)"/><linearGradient id="_lgradient_13" x1="0" y1="0.5" x2="1" y2="0.5" gradientTransform="matrix(5.193,7.309,-4.22,2.998,153.869,57.609)" gradientUnits="userSpaceOnUse"><stop offset="0%" stop-opacity="1" style="stop-color:rgb(46,75,219)"/><stop offset="100%" stop-opacity="1" style="stop-color:rgb(0,206,247)"/></linearGradient><path d=" M 156.466 61.263 L 156.952 66.417 L 152.246 64.262 L 151.759 59.108 L 156.466 61.263 Z " fill="url(#_lgradient_13)"/><linearGradient id="_lgradient_14" x1="0" y1="0.5" x2="1" y2="0.5" gradientTransform="matrix(2.597,3.654,-6.329,4.497,154.356,62.763)" gradientUnits="userSpaceOnUse"><stop offset="0%" stop-opacity="1" style="stop-color:rgb(46,75,219)"/><stop offset="100%" stop-opacity="1" style="stop-color:rgb(0,206,247)"/></linearGradient><path d=" M 156.952 66.417 L 152.733 69.415 L 148.026 67.26 L 152.246 64.262 L 156.952 66.417 Z " fill="url(#_lgradient_14)"/></g><g><path d=" M 128.241 61.286 L 129.844 58.402 L 131.54 61.233 L 129.936 64.117 L 128.241 61.286 Z " fill="rgb(38,62,185)"/><linearGradient id="_lgradient_15" x1="0" y1="0.5" x2="1" y2="0.5" gradientTransform="matrix(4.995,2.777,-1.603,2.884,130.646,56.961)" gradientUnits="userSpaceOnUse"><stop offset="0%" stop-opacity="1" style="stop-color:rgb(46,75,219)"/><stop offset="100%" stop-opacity="1" style="stop-color:rgb(0,206,247)"/></linearGradient><path d=" M 133.143 58.349 L 134.839 61.18 L 131.54 61.233 L 129.844 58.402 L 133.143 58.349 Z " fill="url(#_lgradient_15)"/><linearGradient id="_lgradient_16" x1="0" y1="0.5" x2="1" y2="0.5" gradientTransform="matrix(2.497,1.389,-2.405,4.326,132.341,59.791)" gradientUnits="userSpaceOnUse"><stop offset="0%" stop-opacity="1" style="stop-color:rgb(46,75,219)"/><stop offset="100%" stop-opacity="1" style="stop-color:rgb(0,206,247)"/></linearGradient><path d=" M 134.839 61.18 L 133.235 64.063 L 129.936 64.117 L 131.54 61.233 L 134.839 61.18 Z " fill="url(#_lgradient_16)"/></g><g><path d=" M 159.65 84.739 L 156.366 84.414 L 158.29 81.733 L 161.573 82.058 L 159.65 84.739 Z " fill="rgb(38,62,185)"/><linearGradient id="_lgradient_17" x1="0" y1="0.5" x2="1" y2="0.5" gradientTransform="matrix(0.563,-5.687,3.284,0.325,154.725,84.251)" gradientUnits="userSpaceOnUse"><stop offset="0%" stop-opacity="1" style="stop-color:rgb(46,75,219)"/><stop offset="100%" stop-opacity="1" style="stop-color:rgb(0,206,247)"/></linearGradient><path d=" M 155.006 81.408 L 156.93 78.727 L 158.29 81.733 L 156.366 84.414 L 155.006 81.408 Z " fill="url(#_lgradient_17)"/><linearGradient id="_lgradient_18" x1="0" y1="0.5" x2="1" y2="0.5" gradientTransform="matrix(0.282,-2.844,4.925,0.488,156.648,81.57)" gradientUnits="userSpaceOnUse"><stop offset="0%" stop-opacity="1" style="stop-color:rgb(46,75,219)"/><stop offset="100%" stop-opacity="1" style="stop-color:rgb(0,206,247)"/></linearGradient><path d=" M 156.93 78.727 L 160.213 79.052 L 161.573 82.058 L 158.29 81.733 L 156.93 78.727 Z " fill="url(#_lgradient_18)"/></g><g><path d=" M 141.27 80.025 L 138.304 78.578 L 141.04 76.733 L 144.005 78.179 L 141.27 80.025 Z " fill="rgb(38,62,185)"/><linearGradient id="_lgradient_19" x1="0" y1="0.5" x2="1" y2="0.5" gradientTransform="matrix(2.505,-5.137,2.966,1.446,136.821,77.855)" gradientUnits="userSpaceOnUse"><stop offset="0%" stop-opacity="1" style="stop-color:rgb(46,75,219)"/><stop offset="100%" stop-opacity="1" style="stop-color:rgb(0,206,247)"/></linearGradient><path d=" M 138.074 75.287 L 140.809 73.441 L 141.04 76.733 L 138.304 78.578 L 138.074 75.287 Z " fill="url(#_lgradient_19)"/><linearGradient id="_lgradient_20" x1="0" y1="0.5" x2="1" y2="0.5" gradientTransform="matrix(1.253,-2.568,4.449,2.17,139.557,76.01)" gradientUnits="userSpaceOnUse"><stop offset="0%" stop-opacity="1" style="stop-color:rgb(46,75,219)"/><stop offset="100%" stop-opacity="1" style="stop-color:rgb(0,206,247)"/></linearGradient><path d=" M 140.809 73.441 L 143.775 74.888 L 144.005 78.179 L 141.04 76.733 L 140.809 73.441 Z " fill="url(#_lgradient_20)"/></g></g><g><g><g><path d=" M 193 141.048 L 193 129.501 L 203 135.275 L 203 146.822 L 193 141.048 Z " fill="rgb(38,62,185)"/><linearGradient id="_lgradient_21" x1="0" y1="0.5" x2="1" y2="0.5" gradientTransform="matrix(20,0,0,11.547,193,123.728)" gradientUnits="userSpaceOnUse"><stop offset="0%" stop-opacity="1" style="stop-color:rgb(46,75,219)"/><stop offset="100%" stop-opacity="1" style="stop-color:rgb(0,206,247)"/></linearGradient><path d=" M 203 123.728 L 213 129.501 L 203 135.275 L 193 129.501 L 203 123.728 Z " fill="url(#_lgradient_21)"/><linearGradient id="_lgradient_22" x1="0" y1="0.5" x2="1" y2="0.5" gradientTransform="matrix(10,0,0,17.321,203,129.501)" gradientUnits="userSpaceOnUse"><stop offset="0%" stop-opacity="1" style="stop-color:rgb(46,75,219)"/><stop offset="100%" stop-opacity="1" style="stop-color:rgb(0,206,247)"/></linearGradient><path d=" M 213 129.501 L 213 141.048 L 203 146.822 L 203 135.275 L 213 129.501 Z " fill="url(#_lgradient_22)"/></g><g><path d=" M 193 128.048 L 193 116.501 L 203 122.275 L 203 133.822 L 193 128.048 Z " fill="rgb(38,62,185)"/><linearGradient id="_lgradient_23" x1="0" y1="0.5" x2="1" y2="0.5" gradientTransform="matrix(20,0,0,11.547,193,110.728)" gradientUnits="userSpaceOnUse"><stop offset="0%" stop-opacity="1" style="stop-color:rgb(46,75,219)"/><stop offset="100%" stop-opacity="1" style="stop-color:rgb(0,206,247)"/></linearGradient><path d=" M 203 110.728 L 213 116.501 L 203 122.275 L 193 116.501 L 203 110.728 Z " fill="url(#_lgradient_23)"/><linearGradient id="_lgradient_24" x1="0" y1="0.5" x2="1" y2="0.5" gradientTransform="matrix(10,0,0,17.321,203,116.501)" gradientUnits="userSpaceOnUse"><stop offset="0%" stop-opacity="1" style="stop-color:rgb(46,75,219)"/><stop offset="100%" stop-opacity="1" style="stop-color:rgb(0,206,247)"/></linearGradient><path d=" M 213 116.501 L 213 128.048 L 203 133.822 L 203 122.275 L 213 116.501 Z " fill="url(#_lgradient_24)"/></g><g><path d=" M 193 115.048 L 193 103.501 L 203 109.275 L 203 120.822 L 193 115.048 Z " fill="rgb(38,62,185)"/><linearGradient id="_lgradient_25" x1="0" y1="0.5" x2="1" y2="0.5" gradientTransform="matrix(20,0,0,11.547,193,97.728)" gradientUnits="userSpaceOnUse"><stop offset="0%" stop-opacity="1" style="stop-color:rgb(46,75,219)"/><stop offset="100%" stop-opacity="1" style="stop-color:rgb(0,206,247)"/></linearGradient><path d=" M 203 97.728 L 213 103.501 L 203 109.275 L 193 103.501 L 203 97.728 Z " fill="url(#_lgradient_25)"/><linearGradient id="_lgradient_26" x1="0" y1="0.5" x2="1" y2="0.5" gradientTransform="matrix(10,0,0,17.321,203,103.501)" gradientUnits="userSpaceOnUse"><stop offset="0%" stop-opacity="1" style="stop-color:rgb(46,75,219)"/><stop offset="100%" stop-opacity="1" style="stop-color:rgb(0,206,247)"/></linearGradient><path d=" M 213 103.501 L 213 115.048 L 203 120.822 L 203 109.275 L 213 103.501 Z " fill="url(#_lgradient_26)"/></g></g><linearGradient id="_lgradient_27" x1="1.0834635416666667" y1="-0.16749868241512583" x2="0.26225392345814946" y2="0.7581854481533896" gradientTransform="matrix(41,0,0,24,162,140.822)" gradientUnits="userSpaceOnUse"><stop offset="0%" stop-opacity="1" style="stop-color:rgb(0,0,0)"/><stop offset="98.69565217391305%" stop-opacity="0" style="stop-color:rgb(0,0,0)"/></linearGradient><path d=" M 193 140.822 L 162 158.822 L 172 164.822 L 203 146.822 L 193 140.822 Z " fill="url(#_lgradient_27)"/></g><g><g><g><path d=" M 40 129.048 L 40 117.501 L 50 123.275 L 50 134.822 L 40 129.048 Z " fill="rgb(38,62,185)"/><linearGradient id="_lgradient_28" x1="0" y1="0.5" x2="1" y2="0.5" gradientTransform="matrix(20,0,0,11.547,40,111.728)" gradientUnits="userSpaceOnUse"><stop offset="0%" stop-opacity="1" style="stop-color:rgb(46,75,219)"/><stop offset="100%" stop-opacity="1" style="stop-color:rgb(0,206,247)"/></linearGradient><path d=" M 50 111.728 L 60 117.501 L 50 123.275 L 40 117.501 L 50 111.728 Z " fill="url(#_lgradient_28)"/><linearGradient id="_lgradient_29" x1="0" y1="0.5" x2="1" y2="0.5" gradientTransform="matrix(10,0,0,17.321,50,117.501)" gradientUnits="userSpaceOnUse"><stop offset="0%" stop-opacity="1" style="stop-color:rgb(46,75,219)"/><stop offset="100%" stop-opacity="1" style="stop-color:rgb(0,206,247)"/></linearGradient><path d=" M 60 117.501 L 60 129.048 L 50 134.822 L 50 123.275 L 60 117.501 Z " fill="url(#_lgradient_29)"/></g><g><path d=" M 40 116.048 L 40 104.501 L 50 110.275 L 50 121.822 L 40 116.048 Z " fill="rgb(38,62,185)"/><linearGradient id="_lgradient_30" x1="0" y1="0.5" x2="1" y2="0.5" gradientTransform="matrix(20,0,0,11.547,40,98.728)" gradientUnits="userSpaceOnUse"><stop offset="0%" stop-opacity="1" style="stop-color:rgb(46,75,219)"/><stop offset="100%" stop-opacity="1" style="stop-color:rgb(0,206,247)"/></linearGradient><path d=" M 50 98.728 L 60 104.501 L 50 110.275 L 40 104.501 L 50 98.728 Z " fill="url(#_lgradient_30)"/><linearGradient id="_lgradient_31" x1="0" y1="0.5" x2="1" y2="0.5" gradientTransform="matrix(10,0,0,17.321,50,104.501)" gradientUnits="userSpaceOnUse"><stop offset="0%" stop-opacity="1" style="stop-color:rgb(46,75,219)"/><stop offset="100%" stop-opacity="1" style="stop-color:rgb(0,206,247)"/></linearGradient><path d=" M 60 104.501 L 60 116.048 L 50 121.822 L 50 110.275 L 60 104.501 Z " fill="url(#_lgradient_31)"/></g><g><path d=" M 40 103.048 L 40 91.501 L 50 97.275 L 50 108.822 L 40 103.048 Z " fill="rgb(38,62,185)"/><linearGradient id="_lgradient_32" x1="0" y1="0.5" x2="1" y2="0.5" gradientTransform="matrix(20,0,0,11.547,40,85.728)" gradientUnits="userSpaceOnUse"><stop offset="0%" stop-opacity="1" style="stop-color:rgb(46,75,219)"/><stop offset="100%" stop-opacity="1" style="stop-color:rgb(0,206,247)"/></linearGradient><path d=" M 50 85.728 L 60 91.501 L 50 97.275 L 40 91.501 L 50 85.728 Z " fill="url(#_lgradient_32)"/><linearGradient id="_lgradient_33" x1="0" y1="0.5" x2="1" y2="0.5" gradientTransform="matrix(10,0,0,17.321,50,91.501)" gradientUnits="userSpaceOnUse"><stop offset="0%" stop-opacity="1" style="stop-color:rgb(46,75,219)"/><stop offset="100%" stop-opacity="1" style="stop-color:rgb(0,206,247)"/></linearGradient><path d=" M 60 91.501 L 60 103.048 L 50 108.822 L 50 97.275 L 60 91.501 Z " fill="url(#_lgradient_33)"/></g></g><linearGradient id="_lgradient_34" x1="1.0834635416666667" y1="-0.16749868241512583" x2="0.26225392345814946" y2="0.7581854481533896" gradientTransform="matrix(29.34,0,0,16.521,20.66,128.822)" gradientUnits="userSpaceOnUse"><stop offset="0%" stop-opacity="1" style="stop-color:rgb(0,0,0)"/><stop offset="98.69565217391305%" stop-opacity="0" style="stop-color:rgb(0,0,0)"/></linearGradient><path d=" M 40 128.822 L 20.66 139.033 L 31.699 145.343 L 50 134.822 L 40 128.822 Z " fill="url(#_lgradient_34)"/></g></g><g><defs><filter id="dOAFHHnpjAha7cbxR0yF5ik2mUnn12s2" x="-200%" y="-200%" width="400%" height="400%" filterUnits="objectBoundingBox" color-interpolation-filters="sRGB"><feGaussianBlur xmlns="http://www.w3.org/2000/svg" stdDeviation="1.2880827188517086"/></filter></defs><g filter="url(#dOAFHHnpjAha7cbxR0yF5ik2mUnn12s2)"><path d=" M 130 147.224 L 100 164.545 L 135 184.752 L 165 167.432 L 130 147.224 Z " fill="none" vector-effect="non-scaling-stroke" stroke-width="2" stroke="rgb(255,255,255)" stroke-linejoin="miter" stroke-linecap="square" stroke-miterlimit="3"/></g><path d=" M 130 147.224 L 100 164.545 L 135 184.752 L 165 167.432 L 130 147.224 Z " fill="none" vector-effect="non-scaling-stroke" stroke-width="2" stroke="rgb(255,255,255)" stroke-linejoin="miter" stroke-linecap="square" stroke-miterlimit="3"/></g><g><path d=" M 143.132 159.354 L 143.132 158.862 C 143.137 158.793 143.229 158.614 143.355 158.474 L 144.123 157.639 L 144.278 157.622 L 144.129 157.55 L 143.97 157.565 L 142.834 158.219 C 142.709 158.291 142.608 158.465 142.608 158.608 L 142.608 159.099 L 142.666 159.238 L 142.665 159.238 L 142.67 159.24 L 143.197 159.5 L 143.198 159.5 L 143.132 159.354" fill="rgb(63,62,64)"/><path d=" M 144.123 158.647 L 143.355 159.482 C 143.23 159.554 143.132 159.496 143.132 159.354 L 143.132 158.862 C 143.132 158.751 143.218 158.608 143.355 158.474 L 144.123 157.639 C 144.203 157.549 144.346 157.625 144.346 157.768 L 144.346 158.259 C 144.346 158.397 144.271 158.495 144.123 158.647 Z " fill="rgb(79,80,82)"/><path d=" M 143.069 159.143 C 143.069 159.048 143.004 158.933 142.92 158.885 L 142.811 158.879 L 142.185 159.24 L 142.396 159.603 L 143.021 159.241 L 143.069 159.143" fill="rgb(38,36,36)"/><path d=" M 142.446 159.504 C 142.446 159.598 142.377 159.637 142.295 159.589 C 142.214 159.542 142.145 159.427 142.145 159.332 C 142.145 159.237 142.214 159.2 142.295 159.247 C 142.377 159.294 142.446 159.409 142.446 159.504 Z " fill="rgb(113,115,116)"/><path d=" M 142.544 159.066 L 142.183 158.855 L 142.1 158.849 L 141.971 158.923 L 142.045 158.936 L 142.406 159.145 L 142.521 159.344 L 142.521 159.837 L 142.495 159.907 L 142.627 159.833 L 142.661 159.758 L 142.661 159.265 L 142.544 159.066 Z " fill="rgb(54,53,53)"/><path d=" M 142.408 159.902 L 142.047 159.692 L 141.931 159.493 L 141.931 159.002 L 142.047 158.935 L 142.408 159.144 L 142.526 159.344 L 142.526 159.837 L 142.408 159.902 Z " fill="rgb(76,77,78)"/><path d=" M 127.004 154.595 L 115.471 161.253 L 115.47 162.732 L 127.004 156.073 L 127.004 154.595" fill="rgb(46,45,45)"/><path d=" M 126.534 154.323 L 115 160.981 L 115.471 161.253 L 127.004 154.595 L 126.534 154.323 Z " fill="rgb(94,96,97)"/><path d=" M 115.47 162.732 L 115 162.459 L 115 160.982 L 115.47 161.253 L 115.47 162.732 Z " fill="rgb(70,70,72)"/><path d=" M 118.264 164.345 L 120.875 162.828 L 118.326 162.008 L 117.718 163.858 L 118.264 164.345 Z " fill="rgb(30,29,28)"/><path d=" M 131.51 171.992 L 134.12 170.476 L 131.571 169.654 L 130.964 171.506 L 131.51 171.992 Z " fill="rgb(30,29,28)"/><path d=" M 122.434 166.615 C 122.434 167.89 121.54 168.407 120.435 167.77 C 119.332 167.133 118.436 165.583 118.436 164.309 C 118.436 163.036 119.332 162.518 120.435 163.156 C 121.54 163.792 122.434 165.343 122.434 166.615 Z " fill="rgb(46,45,45)"/><path d=" M 124.257 165.564 C 124.257 164.289 123.362 162.74 122.259 162.102 C 121.719 161.791 121.231 161.756 120.871 161.949 L 120.871 161.948 L 119.036 163.01 C 119.394 162.808 119.889 162.841 120.435 163.156 C 121.54 163.792 122.434 165.343 122.434 166.615 C 122.434 167.227 122.228 167.663 121.892 167.882 L 121.892 167.883 L 123.714 166.831 L 123.714 166.831 C 124.049 166.612 124.257 166.175 124.257 165.564" fill="rgb(65,64,66)"/><path d=" M 122.514 166.568 C 122.514 165.294 121.621 163.744 120.519 163.107 C 119.977 162.795 119.491 162.76 119.129 162.954 L 119.036 163.01 C 119.394 162.808 119.889 162.841 120.435 163.156 C 121.54 163.792 122.434 165.343 122.434 166.615 C 122.434 167.227 122.228 167.663 121.892 167.882 L 121.892 167.883 L 121.973 167.836 C 121.973 167.836 122.514 167.521 122.514 166.568" fill="rgb(79,80,82)"/><path d=" M 123.113 166.226 C 123.113 164.952 122.218 163.402 121.113 162.766 C 120.576 162.454 120.085 162.419 119.728 162.612 L 119.63 162.667 C 119.992 162.466 120.485 162.499 121.03 162.814 C 122.136 163.451 123.03 165.001 123.03 166.274 C 123.03 166.885 122.824 167.321 122.488 167.54 L 122.489 167.541 L 122.569 167.493 C 122.569 167.493 123.113 167.18 123.113 166.226" fill="rgb(39,38,38)"/><path d=" M 123.725 165.87 C 123.725 164.597 122.831 163.047 121.728 162.409 C 121.189 162.098 120.701 162.063 120.341 162.257 L 120.245 162.313 C 120.606 162.11 121.099 162.143 121.646 162.459 C 122.749 163.095 123.645 164.644 123.645 165.918 C 123.645 166.53 123.438 166.965 123.103 167.184 L 123.103 167.184 L 123.183 167.138 C 123.183 167.138 123.727 166.825 123.725 165.87" fill="rgb(39,38,38)"/><path d=" M 122.861 166.483 L 122.594 166.052 L 122.749 165.597 L 122.383 165.249 L 122.474 164.761 L 122.022 164.496 L 122.069 163.986 L 121.547 163.828 L 121.498 163.343 L 120.967 163.267 L 120.843 162.917 L 120.191 162.845 L 119.988 162.661 C 119.988 162.661 119.514 162.784 119.384 162.828 L 119.246 162.889 L 119.246 162.888 L 119.167 162.933 L 119.372 162.848 C 119.489 162.814 119.924 162.696 119.924 162.696 L 120.137 162.884 L 120.777 162.952 L 120.899 163.303 L 121.437 163.383 L 121.477 163.857 L 121.998 164.013 L 121.956 164.532 L 122.405 164.786 L 122.312 165.266 L 122.681 165.613 L 122.528 166.074 L 122.792 166.485 L 122.543 166.874 L 122.666 167.147 L 122.332 167.487 L 122.286 167.656 L 122.347 167.621 L 122.37 167.49 L 122.721 167.138 L 122.604 166.864 L 122.861 166.483" fill="rgb(46,45,45)"/><path d=" M 123.504 166.11 L 123.237 165.68 L 123.394 165.224 L 123.024 164.877 L 123.115 164.388 L 122.666 164.124 L 122.711 163.614 L 122.189 163.456 L 122.14 162.973 L 121.607 162.895 L 121.484 162.544 L 120.833 162.473 L 120.631 162.288 C 120.631 162.288 120.155 162.41 120.025 162.457 L 119.888 162.517 L 119.809 162.561 L 120.013 162.475 C 120.129 162.443 120.566 162.324 120.566 162.324 L 120.779 162.512 L 121.42 162.58 L 121.541 162.931 L 122.078 163.012 L 122.118 163.485 L 122.639 163.64 L 122.599 164.16 L 123.047 164.415 L 122.954 164.895 L 123.322 165.24 L 123.171 165.702 L 123.434 166.114 L 123.184 166.502 L 123.308 166.774 L 122.973 167.115 L 122.925 167.285 L 122.989 167.251 L 123.012 167.121 L 123.363 166.765 L 123.245 166.491 L 123.504 166.11" fill="rgb(46,45,45)"/><path d=" M 124.14 165.743 L 123.873 165.313 L 124.03 164.857 L 123.661 164.509 L 123.752 164.022 L 123.3 163.757 L 123.348 163.246 L 122.826 163.089 L 122.777 162.604 L 122.242 162.529 L 122.121 162.178 L 121.47 162.105 L 121.266 161.921 C 121.266 161.921 120.792 162.044 120.661 162.09 L 120.522 162.15 L 120.522 162.15 L 120.445 162.194 L 120.65 162.109 C 120.766 162.076 121.201 161.957 121.201 161.957 L 121.415 162.145 L 122.055 162.212 L 122.177 162.564 L 122.715 162.644 L 122.756 163.117 L 123.275 163.273 L 123.237 163.792 L 123.683 164.048 L 123.589 164.527 L 123.958 164.873 L 123.807 165.335 L 124.071 165.746 L 123.82 166.135 L 123.945 166.407 L 123.609 166.748 L 123.563 166.916 L 123.625 166.882 L 123.647 166.753 L 124.001 166.398 L 123.882 166.125 L 124.14 165.743" fill="rgb(46,45,45)"/><path d=" M 121.853 166.281 C 121.853 167.186 121.218 167.552 120.435 167.1 C 119.652 166.647 119.017 165.549 119.017 164.644 C 119.017 163.741 119.652 163.374 120.435 163.826 C 121.218 164.278 121.853 165.377 121.853 166.281 Z " fill="rgb(30,29,28)"/><path d=" M 121.672 166.178 C 121.672 166.967 121.12 167.287 120.435 166.893 C 119.751 166.498 119.197 165.538 119.197 164.748 C 119.197 163.958 119.751 163.638 120.435 164.033 C 121.12 164.428 121.672 165.388 121.672 166.178 Z " fill="rgb(141,141,141)"/><path d=" M 120.872 165.716 C 120.872 165.996 120.678 166.109 120.435 165.968 C 120.193 165.829 119.997 165.49 119.997 165.21 C 119.997 164.931 120.193 164.818 120.435 164.956 C 120.678 165.097 120.872 165.437 120.872 165.716" fill="rgb(104,106,108)"/><path d=" M 120.55 165.53 L 120.435 165.597 L 120.319 165.396 L 120.435 165.33 L 120.55 165.53" fill="rgb(79,80,82)"/><path d=" M 120.707 165.422 L 120.688 165.452 L 120.573 165.385 L 120.573 165.253 L 120.593 165.247 L 120.615 165.35 L 120.707 165.422" fill="rgb(72,72,73)"/><path d=" M 120.707 165.422 L 120.615 165.35 L 120.593 165.247 L 120.688 165.318 L 120.707 165.422 Z " fill="rgb(39,38,38)"/><path d=" M 120.703 165.87 L 120.682 165.9 L 120.567 165.834 L 120.567 165.7 L 120.592 165.695 L 120.611 165.799 L 120.703 165.87" fill="rgb(72,72,73)"/><path d=" M 120.703 165.87 L 120.611 165.799 L 120.592 165.695 L 120.682 165.768 L 120.703 165.87 Z " fill="rgb(39,38,38)"/><path d=" M 120.314 165.641 L 120.292 165.671 L 120.178 165.604 L 120.178 165.471 L 120.201 165.466 L 120.221 165.569 L 120.314 165.641 Z " fill="rgb(72,72,73)"/><path d=" M 120.314 165.641 L 120.221 165.569 L 120.201 165.466 L 120.292 165.538 L 120.314 165.641 Z " fill="rgb(39,38,38)"/><path d=" M 120.317 165.194 L 120.296 165.223 L 120.183 165.156 L 120.182 165.022 L 120.203 165.017 L 120.225 165.121 L 120.317 165.194 Z " fill="rgb(72,72,73)"/><path d=" M 120.317 165.194 L 120.225 165.121 L 120.203 165.017 L 120.295 165.09 L 120.317 165.194 Z " fill="rgb(39,38,38)"/><path d=" M 120.811 164.515 C 120.735 164.618 120.595 164.636 120.435 164.543 C 120.218 164.417 120.037 164.132 120.002 163.873 L 120.132 163.901 C 120.196 164.13 120.356 164.358 120.543 164.467 C 120.644 164.524 120.738 164.539 120.811 164.515" fill="rgb(79,80,82)"/><path d=" M 120.869 164.375 L 120.811 164.515 C 120.738 164.539 120.644 164.524 120.543 164.467 C 120.356 164.358 120.196 164.13 120.132 163.901 C 120.229 163.928 120.332 163.973 120.435 164.033 C 120.587 164.121 120.735 164.238 120.869 164.375 Z " fill="rgb(39,38,38)"/><path d=" M 121.407 166.908 C 121.261 167.04 121.06 167.089 120.831 167.046 C 120.744 166.789 120.787 166.559 120.949 166.501 L 120.961 166.496 C 120.883 166.598 120.874 166.774 120.939 166.969 C 121.116 167.001 121.276 166.98 121.407 166.908" fill="rgb(79,80,82)"/><path d=" M 121.498 166.809 L 121.407 166.908 C 121.276 166.98 121.116 167.001 120.939 166.969 C 120.874 166.774 120.883 166.598 120.961 166.496 C 121.123 166.446 121.343 166.58 121.498 166.809" fill="rgb(39,38,38)"/><path d=" M 121.672 166.178 L 121.671 166.241 C 121.468 166.15 121.27 165.894 121.201 165.622 C 121.141 165.376 121.209 165.189 121.354 165.145 C 121.289 165.231 121.269 165.374 121.312 165.546 C 121.367 165.769 121.508 165.98 121.669 166.099 L 121.672 166.178 Z " fill="rgb(79,80,82)"/><path d=" M 121.669 166.099 C 121.508 165.98 121.367 165.769 121.312 165.546 C 121.269 165.374 121.289 165.231 121.354 165.145 L 121.405 165.137 C 121.559 165.45 121.656 165.786 121.669 166.099 Z " fill="rgb(39,38,38)"/><path d=" M 120.092 166.456 L 120.049 166.598 C 119.766 166.328 119.527 165.967 119.375 165.589 L 119.512 165.583 C 119.652 165.905 119.854 166.211 120.092 166.456" fill="rgb(79,80,82)"/><path d=" M 120.092 166.456 C 119.854 166.211 119.652 165.905 119.512 165.583 C 119.652 165.608 119.814 165.728 119.934 165.914 C 120.053 166.097 120.108 166.3 120.092 166.456" fill="rgb(39,38,38)"/><path d=" M 119.638 164.823 C 119.547 164.945 119.372 164.939 119.198 164.811 L 119.197 164.748 C 119.197 164.411 119.298 164.16 119.468 164.013 L 119.485 164.034 C 119.372 164.184 119.306 164.4 119.306 164.671 L 119.308 164.734 C 119.427 164.822 119.546 164.853 119.638 164.823 Z " fill="rgb(79,80,82)"/><path d=" M 119.678 164.743 L 119.638 164.823 C 119.546 164.853 119.427 164.822 119.308 164.734 L 119.306 164.671 C 119.306 164.4 119.372 164.184 119.485 164.034 C 119.66 164.254 119.744 164.549 119.678 164.743" fill="rgb(39,38,38)"/><path d=" M 135.701 174.277 C 135.701 175.55 134.807 176.067 133.704 175.43 C 132.599 174.793 131.705 173.244 131.705 171.969 C 131.705 170.695 132.599 170.178 133.704 170.814 C 134.807 171.452 135.701 173.003 135.701 174.277 Z " fill="rgb(46,45,45)"/><path d=" M 137.525 173.223 C 137.525 171.949 136.63 170.399 135.527 169.762 C 134.987 169.451 134.498 169.416 134.139 169.609 L 134.138 169.609 L 132.301 170.67 C 132.662 170.467 133.157 170.501 133.704 170.814 C 134.807 171.452 135.701 173.003 135.701 174.277 C 135.701 174.886 135.495 175.324 135.159 175.542 L 135.159 175.543 L 136.982 174.49 C 137.317 174.272 137.525 173.835 137.525 173.223" fill="rgb(65,64,66)"/><path d=" M 135.783 174.228 C 135.783 172.953 134.889 171.404 133.784 170.768 C 133.247 170.456 132.758 170.421 132.398 170.613 L 132.301 170.67 C 132.662 170.467 133.157 170.501 133.704 170.814 C 134.807 171.452 135.701 173.003 135.701 174.277 C 135.701 174.886 135.495 175.324 135.159 175.542 L 135.159 175.543 L 135.239 175.495 C 135.239 175.495 135.784 175.182 135.783 174.228" fill="rgb(79,80,82)"/><path d=" M 136.38 173.886 C 136.38 172.612 135.483 171.062 134.38 170.426 C 133.842 170.114 133.353 170.079 132.994 170.272 L 132.898 170.328 C 133.258 170.126 133.751 170.158 134.299 170.473 C 135.403 171.11 136.297 172.66 136.297 173.935 C 136.297 174.546 136.091 174.981 135.755 175.2 L 135.755 175.2 L 135.837 175.154 C 135.837 175.154 136.38 174.841 136.38 173.886" fill="rgb(39,38,38)"/><path d=" M 136.993 173.53 C 136.993 172.256 136.098 170.706 134.995 170.069 C 134.457 169.758 133.967 169.723 133.608 169.916 L 133.512 169.972 C 133.873 169.77 134.367 169.803 134.913 170.118 C 136.015 170.756 136.912 172.304 136.912 173.578 C 136.912 174.188 136.705 174.626 136.369 174.844 L 136.369 174.845 L 136.45 174.798 C 136.45 174.798 136.995 174.484 136.993 173.53 Z " fill="rgb(39,38,38)"/><path d=" M 136.13 174.142 L 135.863 173.711 L 136.017 173.256 L 135.65 172.908 L 135.743 172.421 L 135.29 172.156 L 135.338 171.647 L 134.816 171.488 L 134.767 171.004 L 134.235 170.927 L 134.11 170.576 L 133.46 170.505 L 133.253 170.319 C 133.253 170.319 132.782 170.443 132.65 170.488 L 132.511 170.549 L 132.511 170.548 L 132.433 170.592 L 132.641 170.507 C 132.756 170.475 133.19 170.356 133.19 170.356 L 133.404 170.545 L 134.045 170.613 L 134.167 170.962 L 134.704 171.044 L 134.744 171.518 L 135.267 171.672 L 135.224 172.192 L 135.672 172.446 L 135.579 172.927 L 135.948 173.273 L 135.796 173.734 L 136.06 174.146 L 135.811 174.534 L 135.935 174.807 L 135.598 175.148 L 135.552 175.317 L 135.615 175.281 L 135.638 175.152 L 135.988 174.797 L 135.871 174.523 L 136.13 174.142 Z " fill="rgb(46,45,45)"/><path d=" M 136.772 173.77 L 136.506 173.341 L 136.661 172.884 L 136.293 172.537 L 136.384 172.049 L 135.932 171.785 L 135.978 171.274 L 135.457 171.116 L 135.408 170.631 L 134.875 170.555 L 134.751 170.205 L 134.101 170.133 L 133.896 169.948 C 133.896 169.948 133.422 170.07 133.293 170.116 L 133.153 170.177 L 133.075 170.221 L 133.282 170.135 C 133.398 170.103 133.833 169.984 133.833 169.984 L 134.045 170.172 L 134.687 170.241 L 134.807 170.59 L 135.346 170.671 L 135.386 171.145 L 135.905 171.301 L 135.866 171.819 L 136.316 172.075 L 136.221 172.555 L 136.59 172.9 L 136.438 173.361 L 136.702 173.773 L 136.452 174.162 L 136.578 174.434 L 136.241 174.776 L 136.194 174.945 L 136.256 174.91 L 136.28 174.781 L 136.63 174.426 L 136.513 174.152 L 136.772 173.77" fill="rgb(46,45,45)"/><path d=" M 137.407 173.404 L 137.141 172.973 L 137.297 172.517 L 136.929 172.17 L 137.02 171.682 L 136.569 171.417 L 136.615 170.907 L 136.095 170.75 L 136.045 170.264 L 135.511 170.188 L 135.387 169.836 L 134.738 169.767 L 134.534 169.581 C 134.534 169.581 134.06 169.704 133.93 169.749 L 133.791 169.81 L 133.791 169.809 L 133.711 169.854 L 133.92 169.768 C 134.034 169.735 134.468 169.617 134.468 169.617 L 134.683 169.805 L 135.323 169.873 L 135.444 170.223 L 135.982 170.305 L 136.022 170.778 L 136.543 170.933 L 136.504 171.452 L 136.95 171.708 L 136.857 172.187 L 137.224 172.533 L 137.074 172.995 L 137.339 173.407 L 137.09 173.795 L 137.212 174.067 L 136.877 174.409 L 136.83 174.577 L 136.892 174.542 L 136.916 174.412 L 137.267 174.058 L 137.147 173.784 L 137.407 173.404" fill="rgb(46,45,45)"/><path d=" M 135.12 173.941 C 135.12 174.846 134.486 175.212 133.704 174.759 C 132.92 174.307 132.284 173.208 132.284 172.304 C 132.284 171.4 132.92 171.034 133.704 171.486 C 134.486 171.938 135.12 173.038 135.12 173.941 Z " fill="rgb(30,29,28)"/><path d=" M 134.939 173.837 C 134.939 174.627 134.386 174.947 133.704 174.553 C 133.019 174.157 132.464 173.199 132.464 172.408 C 132.464 171.619 133.019 171.299 133.704 171.694 C 134.386 172.089 134.939 173.048 134.939 173.837 Z " fill="rgb(141,141,141)"/><path d=" M 134.14 173.375 C 134.14 173.655 133.946 173.768 133.704 173.629 C 133.461 173.489 133.265 173.149 133.265 172.87 C 133.265 172.591 133.461 172.478 133.704 172.617 C 133.946 172.756 134.14 173.097 134.14 173.375 Z " fill="rgb(104,106,108)"/><path d=" M 133.818 173.189 L 133.704 173.256 L 133.587 173.057 L 133.704 172.989 L 133.818 173.189 Z " fill="rgb(79,80,82)"/><path d=" M 133.976 173.081 L 133.955 173.112 L 133.841 173.046 L 133.841 172.913 L 133.861 172.907 L 133.883 173.01 L 133.976 173.081" fill="rgb(72,72,73)"/><path d=" M 133.976 173.081 L 133.883 173.01 L 133.861 172.907 L 133.955 172.979 L 133.976 173.081" fill="rgb(39,38,38)"/><path d=" M 133.971 173.53 L 133.949 173.56 L 133.833 173.493 L 133.833 173.36 L 133.858 173.355 L 133.878 173.459 L 133.971 173.53 Z " fill="rgb(72,72,73)"/><path d=" M 133.971 173.53 L 133.878 173.459 L 133.858 173.355 L 133.949 173.427 L 133.971 173.53 Z " fill="rgb(39,38,38)"/><path d=" M 133.582 173.301 L 133.561 173.33 L 133.445 173.263 L 133.445 173.131 L 133.469 173.125 L 133.489 173.229 L 133.582 173.301 Z " fill="rgb(72,72,73)"/><path d=" M 133.582 173.301 L 133.489 173.229 L 133.469 173.125 L 133.561 173.199 L 133.582 173.301 Z " fill="rgb(39,38,38)"/><path d=" M 133.585 172.854 L 133.564 172.883 L 133.449 172.816 L 133.449 172.682 L 133.471 172.677 L 133.494 172.781 L 133.585 172.854" fill="rgb(72,72,73)"/><path d=" M 133.585 172.854 L 133.494 172.781 L 133.471 172.677 L 133.564 172.75 L 133.585 172.854" fill="rgb(39,38,38)"/><path d=" M 134.079 172.176 C 134.002 172.278 133.861 172.296 133.704 172.204 C 133.484 172.079 133.305 171.793 133.269 171.534 L 133.399 171.562 C 133.462 171.79 133.624 172.018 133.812 172.126 C 133.913 172.184 134.004 172.199 134.079 172.176" fill="rgb(79,80,82)"/><path d=" M 134.136 172.035 L 134.079 172.176 C 134.004 172.199 133.913 172.184 133.812 172.126 C 133.624 172.018 133.462 171.79 133.399 171.562 C 133.496 171.589 133.599 171.633 133.704 171.694 C 133.854 171.782 134.002 171.898 134.136 172.035" fill="rgb(39,38,38)"/><path d=" M 134.674 174.568 C 134.527 174.699 134.328 174.75 134.098 174.705 C 134.013 174.449 134.056 174.218 134.215 174.159 L 134.228 174.155 C 134.15 174.257 134.142 174.435 134.204 174.629 C 134.382 174.662 134.544 174.64 134.674 174.568" fill="rgb(79,80,82)"/><path d=" M 134.767 174.469 L 134.674 174.568 C 134.544 174.64 134.382 174.662 134.204 174.629 C 134.142 174.435 134.15 174.257 134.228 174.155 C 134.391 174.107 134.612 174.241 134.767 174.469" fill="rgb(39,38,38)"/><path d=" M 134.939 173.837 L 134.939 173.9 C 134.736 173.809 134.538 173.555 134.47 173.283 C 134.409 173.035 134.477 172.849 134.621 172.806 C 134.556 172.891 134.537 173.033 134.579 173.205 C 134.635 173.428 134.775 173.64 134.937 173.759 L 134.939 173.837" fill="rgb(79,80,82)"/><path d=" M 134.937 173.759 C 134.775 173.64 134.635 173.428 134.579 173.205 C 134.537 173.033 134.556 172.891 134.621 172.806 L 134.673 172.796 C 134.828 173.11 134.926 173.445 134.937 173.759 Z " fill="rgb(39,38,38)"/><path d=" M 133.358 174.116 L 133.317 174.258 C 133.033 173.989 132.795 173.627 132.642 173.25 L 132.781 173.243 C 132.92 173.565 133.12 173.87 133.358 174.116" fill="rgb(79,80,82)"/><path d=" M 133.358 174.116 C 133.12 173.87 132.92 173.565 132.781 173.243 C 132.92 173.267 133.079 173.387 133.2 173.574 C 133.321 173.756 133.375 173.96 133.358 174.116" fill="rgb(39,38,38)"/><path d=" M 132.904 172.483 C 132.814 172.604 132.641 172.598 132.466 172.471 L 132.464 172.408 C 132.464 172.071 132.566 171.819 132.735 171.672 L 132.752 171.694 C 132.639 171.844 132.574 172.06 132.574 172.331 L 132.574 172.394 C 132.692 172.482 132.814 172.512 132.904 172.483 Z " fill="rgb(79,80,82)"/><path d=" M 132.945 172.404 L 132.904 172.483 C 132.814 172.512 132.692 172.482 132.574 172.394 L 132.574 172.331 C 132.574 172.06 132.639 171.844 132.752 171.694 C 132.927 171.914 133.012 172.21 132.945 172.404" fill="rgb(39,38,38)"/><linearGradient id="_lgradient_35" x1="0" y1="0.5" x2="1" y2="0.5" gradientTransform="matrix(21.725,0,0,-12.544,118.393,159.852)" gradientUnits="userSpaceOnUse"><stop offset="0%" stop-opacity="1" style="stop-color:rgb(46,75,219)"/><stop offset="100%" stop-opacity="1" style="stop-color:rgb(0,206,247)"/></linearGradient><path d=" M 140.118 153.193 L 129.926 147.308 L 118.393 153.968 L 128.585 159.852 L 140.118 153.193 Z " fill="url(#_lgradient_35)"/><linearGradient id="_lgradient_36" x1="0" y1="0.5" x2="1" y2="0.5" gradientTransform="matrix(18.023,0,0,-12.126,131.508,171.376)" gradientUnits="userSpaceOnUse"><stop offset="0%" stop-opacity="1" style="stop-color:rgb(46,75,219)"/><stop offset="100%" stop-opacity="1" style="stop-color:rgb(0,206,247)"/></linearGradient><path d=" M 149.531 164.717 L 143.039 159.249 L 131.508 165.907 L 137.998 171.376 L 149.531 164.717 Z " fill="url(#_lgradient_36)"/><linearGradient id="_lgradient_37" x1="0" y1="0.5" x2="1" y2="0.5" gradientTransform="matrix(11.533,0,0,-11.021,137.998,175.738)" gradientUnits="userSpaceOnUse"><stop offset="0%" stop-opacity="1" style="stop-color:rgb(46,75,219)"/><stop offset="100%" stop-opacity="1" style="stop-color:rgb(0,206,247)"/></linearGradient><path d=" M 149.531 169.078 L 149.531 164.717 L 137.998 171.376 L 137.998 175.738 L 149.531 169.078 Z " fill="url(#_lgradient_37)"/><path d=" M 131.508 165.907 L 128.585 159.852 L 118.393 153.968 L 115.47 156.649 L 115.47 162.732 L 118.264 164.345 L 118.261 164.246 C 118.261 162.835 119.253 162.263 120.473 162.969 C 121.695 163.673 122.686 165.389 122.686 166.8 L 122.683 166.895 L 131.51 171.992 L 131.508 171.893 C 131.508 170.482 132.499 169.911 133.72 170.615 C 134.94 171.321 135.931 173.037 135.931 174.447 L 135.929 174.544 L 137.998 175.738 L 137.998 171.376 L 131.508 165.907" fill="rgb(38,62,185)"/><path d=" M 130.872 165.54 L 124.412 161.809 L 124.412 157.998 L 124.712 158.172 L 124.712 161.638 L 130.64 165.059 L 130.872 165.54 Z " fill="rgb(62,95,181)"/><clipPath id="_clipPath_ZrNKJCDeNzvmjR06EUSHVqDk4yCScdN0"><path d=" M 130.64 165.059 L 124.712 161.638 L 124.712 158.172 L 128.338 160.266 L 130.64 165.059 Z " fill="rgb(255,255,255)"/></clipPath><g clip-path="url(#_clipPath_ZrNKJCDeNzvmjR06EUSHVqDk4yCScdN0)"><g><linearGradient id="_lgradient_38" x1="0" y1="0.4999382639832035" x2="0.9999541021227785" y2="0.4999382639832035" gradientTransform="matrix(5.928,0,0,-6.887,124.712,165.059)" gradientUnits="userSpaceOnUse"><stop offset="0%" stop-opacity="1" style="stop-color:rgb(115,177,228)"/><stop offset="100%" stop-opacity="1" style="stop-color:rgb(40,82,140)"/></linearGradient><path d=" M 130.64 165.059 L 124.712 161.638 L 124.712 158.172 L 128.338 160.266 L 130.64 165.059" fill="url(#_lgradient_38)"/></g></g><path d=" M 123.473 160.92 L 123.473 161.269 L 117.014 157.539 L 119.547 155.189 L 119.616 155.23 L 117.315 157.366 L 123.473 160.92" fill="rgb(62,95,181)"/><clipPath id="_clipPath_SGBRv5mgFyEHFHG349HNUuy2ZsuiprgC"><path d=" M 123.473 157.457 L 123.473 160.92 L 117.315 157.366 L 119.616 155.23 L 123.473 157.457 Z " fill="rgb(255,255,255)"/></clipPath><g clip-path="url(#_clipPath_SGBRv5mgFyEHFHG349HNUuy2ZsuiprgC)"><g><linearGradient id="_lgradient_39" x1="0" y1="0.5" x2="1.0000262358464482" y2="0.5" gradientTransform="matrix(6.158,0,0,-5.69,117.315,160.92)" gradientUnits="userSpaceOnUse"><stop offset="0%" stop-opacity="1" style="stop-color:rgb(115,177,228)"/><stop offset="100%" stop-opacity="1" style="stop-color:rgb(40,82,140)"/></linearGradient><path d=" M 123.473 157.457 L 123.473 160.92 L 117.315 157.366 L 119.616 155.23 L 123.473 157.457 Z " fill="url(#_lgradient_39)"/></g></g><path d=" M 131.188 171.079 L 124.198 167.043 L 124.198 157.651 L 128.452 160.107 L 131.188 165.742 L 131.188 171.079 Z  M 128.501 160.021 L 124.101 157.481 L 124.101 167.099 L 131.285 171.247 L 131.285 165.76 L 128.501 160.021" fill="rgb(46,81,255)"/><path d=" M 125.672 163.429 C 125.672 163.557 125.388 163.497 125.042 163.297 C 124.695 163.097 124.412 162.829 124.412 162.701 C 124.412 162.574 124.695 162.633 125.042 162.833 C 125.388 163.034 125.672 163.302 125.672 163.429" fill="rgb(47,47,47)"/><path d=" M 150 167.872 L 138.468 174.531 L 138.468 176.008 L 150 169.351 L 150 167.872 Z " fill="rgb(46,45,45)"/><path d=" M 149.531 167.601 L 137.998 174.259 L 138.468 174.531 L 150 167.872 L 149.531 167.601 Z " fill="rgb(94,96,97)"/><path d=" M 138.468 176.008 L 137.998 175.738 L 137.998 174.259 L 138.468 174.531 L 138.468 176.008 Z " fill="rgb(70,70,72)"/><linearGradient id="_lgradient_40" x1="0" y1="0.5" x2="1" y2="0.5" gradientTransform="matrix(14.455,0,0,-12.714,128.585,165.907)" gradientUnits="userSpaceOnUse"><stop offset="0%" stop-opacity="1" style="stop-color:rgb(46,75,219)"/><stop offset="100%" stop-opacity="1" style="stop-color:rgb(0,206,247)"/></linearGradient><path d=" M 143.039 159.249 L 131.508 165.907 L 128.585 159.852 L 140.118 153.193 L 143.039 159.249 Z " fill="url(#_lgradient_40)"/><path d=" M 145.934 168.018 C 145.934 167.66 145.681 167.514 145.371 167.693 L 142.221 169.512 C 141.913 169.691 141.659 170.129 141.659 170.484 L 141.659 171.834 L 145.934 169.365 L 145.934 168.018" fill="rgb(97,99,100)"/><path d=" M 149.104 166.988 L 149.095 165.543 L 147.395 166.525 C 146.939 166.788 146.567 167.432 146.567 167.956 L 146.567 168.452 L 149.104 166.988" fill="rgb(255,255,255)"/><path d=" M 149.104 167.536 L 146.567 169 L 146.567 168.452 L 149.104 166.988 L 149.104 167.536 Z " fill="rgb(206,87,30)"/><path d=" M 138.468 173.13 L 138.476 171.675 L 140.177 170.692 C 140.631 170.43 141.003 170.644 141.003 171.17 L 141.003 171.666 L 138.468 173.13" fill="rgb(255,255,255)"/><path d=" M 138.468 173.676 L 141.003 172.212 L 141.003 171.666 L 138.468 173.13 L 138.468 173.676 Z " fill="rgb(206,87,30)"/><path d=" M 142.631 159.135 L 131.77 165.405 L 131.637 165.128 L 142.319 158.96 L 139.79 153.722 L 139.968 153.618 L 142.631 159.135" fill="rgb(62,95,181)"/><clipPath id="_clipPath_hIDGwjqVTGsv3bIncTML3fIOrFE3xuaW"><path d=" M 142.319 158.96 L 131.637 165.128 L 129.105 159.89 L 139.79 153.722 L 142.319 158.96 Z " fill="rgb(255,255,255)"/></clipPath><g clip-path="url(#_clipPath_hIDGwjqVTGsv3bIncTML3fIOrFE3xuaW)"><g><linearGradient id="_lgradient_41" x1="0.8108751608751632" y1="0.15163262263306976" x2="0.08340411840412187" y2="0.8555965865970337" gradientTransform="matrix(13.214,0,0,-11.406,129.105,165.128)" gradientUnits="userSpaceOnUse"><stop offset="0%" stop-opacity="1" style="stop-color:rgb(115,177,228)"/><stop offset="100%" stop-opacity="1" style="stop-color:rgb(40,82,140)"/></linearGradient><path d=" M 142.319 158.96 L 131.637 165.128 L 129.105 159.89 L 139.79 153.722 L 142.319 158.96" fill="url(#_lgradient_41)"/></g></g><clipPath id="_clipPath_5GNQiOUK2tEowx4a5wW2fTJuVaq1Fw2C"><path d=" M 142.073 158.55 L 136.8 155.505 L 136.8 155.448 L 139.76 153.735 L 142.073 158.55 Z " fill="rgb(255,255,255)"/></clipPath><g clip-path="url(#_clipPath_5GNQiOUK2tEowx4a5wW2fTJuVaq1Fw2C)"><g><linearGradient id="_lgradient_42" x1="0.8469601677148901" y1="0.9314850785802591" x2="1.2142896307047266" y2="1.5205803857887648" gradientTransform="matrix(5.273,0,0,-4.815,136.8,158.55)" gradientUnits="userSpaceOnUse"><stop offset="0%" stop-opacity="1" style="stop-color:rgb(115,177,228)"/><stop offset="100%" stop-opacity="1" style="stop-color:rgb(40,82,140)"/></linearGradient><path d=" M 142.073 158.55 L 136.8 155.505 L 136.8 155.448 L 139.76 153.735 L 142.073 158.55 Z " fill="url(#_lgradient_42)"/></g></g><path d=" M 141.669 158.183 L 140.963 158.59 L 140.283 158.196 L 136.987 160.099 L 136.987 160.886 L 131.202 164.226 L 131.637 165.128 L 142.319 158.96 L 141.669 158.183" fill="rgb(59,140,169)"/><path d=" M 133.307 164.02 L 133.415 164.259 L 132.599 164.73 L 132.688 164.91 L 135.62 163.218 L 135.528 163.038 L 136.506 162.475 L 136.397 162.355 L 133.307 164.02" fill="rgb(46,45,45)"/><path d=" M 138.473 161.038 L 138.579 161.276 L 137.766 161.747 L 137.854 161.928 L 140.785 160.235 L 140.694 160.056 L 141.67 159.492 L 141.561 159.374 L 138.473 161.038" fill="rgb(46,45,45)"/><path d=" M 136.567 164.421 L 134.397 165.673 L 133.765 165.172 L 135.932 163.922 L 136.567 164.421" fill="rgb(113,115,116)"/><path d=" M 134.613 165.547 L 134.444 165.645 L 133.812 165.145 L 133.983 165.047 L 134.613 165.547" fill="rgb(79,80,82)"/><path d=" M 134.886 165.39 L 134.716 165.488 L 134.085 164.987 L 134.255 164.89 L 134.886 165.39" fill="rgb(79,80,82)"/><path d=" M 135.159 165.233 L 134.988 165.331 L 134.357 164.831 L 134.526 164.733 L 135.159 165.233" fill="rgb(79,80,82)"/><path d=" M 135.431 165.076 L 135.261 165.173 L 134.629 164.674 L 134.798 164.576 L 135.431 165.076 Z " fill="rgb(79,80,82)"/><path d=" M 135.703 164.917 L 135.534 165.017 L 134.899 164.517 L 135.07 164.417 L 135.703 164.917" fill="rgb(79,80,82)"/><path d=" M 135.974 164.761 L 135.806 164.86 L 135.171 164.36 L 135.342 164.261 L 135.974 164.761" fill="rgb(79,80,82)"/><path d=" M 136.248 164.604 L 136.077 164.703 L 135.445 164.203 L 135.615 164.104 L 136.248 164.604 Z " fill="rgb(79,80,82)"/><path d=" M 136.52 164.447 L 136.351 164.545 L 135.716 164.046 L 135.886 163.947 L 136.52 164.447" fill="rgb(79,80,82)"/><path d=" M 142.231 161.15 L 140.061 162.403 L 139.428 161.902 L 141.595 160.65 L 142.231 161.15" fill="rgb(113,115,116)"/><path d=" M 140.279 162.276 L 140.109 162.375 L 139.476 161.875 L 139.647 161.775 L 140.279 162.276" fill="rgb(79,80,82)"/><path d=" M 140.551 162.12 L 140.38 162.218 L 139.748 161.718 L 139.918 161.619 L 140.551 162.12" fill="rgb(79,80,82)"/><path d=" M 140.822 161.962 L 140.652 162.061 L 140.021 161.56 L 140.192 161.462 L 140.822 161.962" fill="rgb(79,80,82)"/><path d=" M 141.095 161.805 L 140.926 161.903 L 140.292 161.405 L 140.464 161.305 L 141.095 161.805 Z " fill="rgb(79,80,82)"/><path d=" M 141.368 161.648 L 141.197 161.747 L 140.564 161.247 L 140.734 161.149 L 141.368 161.648" fill="rgb(79,80,82)"/><path d=" M 141.64 161.491 L 141.47 161.589 L 140.836 161.089 L 141.006 160.991 L 141.64 161.491 Z " fill="rgb(79,80,82)"/><path d=" M 141.913 161.333 L 141.743 161.433 L 141.11 160.932 L 141.279 160.834 L 141.913 161.333" fill="rgb(79,80,82)"/><path d=" M 142.185 161.177 L 142.013 161.275 L 141.38 160.775 L 141.551 160.677 L 142.185 161.177" fill="rgb(79,80,82)"/><path d=" M 131.023 165.717 L 130.659 165.508 L 130.576 165.502 L 130.448 165.576 L 130.523 165.587 L 130.885 165.797 L 131 165.996 L 131 166.489 L 130.972 166.558 L 131.103 166.484 L 131.137 166.41 L 131.137 165.916 L 131.023 165.717" fill="rgb(54,53,53)"/><path d=" M 130.887 166.554 L 130.524 166.345 L 130.409 166.145 L 130.409 165.653 L 130.524 165.587 L 130.887 165.796 L 131.002 165.996 L 131.002 166.487 L 130.887 166.554 Z " fill="rgb(76,77,78)"/><path d=" M 130.832 166.133 C 130.832 166.039 130.766 165.923 130.682 165.876 L 130.573 165.869 L 129.949 166.23 L 130.158 166.593 L 130.784 166.232 L 130.832 166.133 Z " fill="rgb(54,53,53)"/><path d=" M 130.205 166.495 C 130.205 166.59 130.139 166.627 130.057 166.58 C 129.977 166.533 129.91 166.417 129.91 166.323 C 129.91 166.229 129.977 166.189 130.057 166.236 C 130.139 166.285 130.205 166.4 130.205 166.495 Z " fill="rgb(113,115,116)"/><path d=" M 128.341 167.292 L 128.341 166.803 C 128.341 166.659 128.44 166.485 128.567 166.415 L 130.02 165.916 L 130.176 165.9 L 129.671 165.646 L 129.508 165.66 L 128.372 166.314 C 128.249 166.387 128.148 166.561 128.148 166.704 L 128.148 167.194 L 128.207 167.333 L 128.207 167.334 L 128.21 167.336 L 128.408 167.439 L 128.409 167.439 L 128.341 167.292" fill="rgb(63,62,64)"/><path d=" M 130.02 166.924 L 128.567 167.422 C 128.44 167.493 128.341 167.435 128.341 167.292 L 128.341 166.803 C 128.341 166.659 128.44 166.485 128.567 166.415 L 130.02 165.916 C 130.142 165.844 130.243 165.903 130.243 166.046 L 130.243 166.536 C 130.243 166.679 130.142 166.853 130.02 166.924" fill="rgb(79,80,82)"/></g><g><defs><filter id="WOOzLcWEvdOJR2Su23oQZM6GXhKFv6Cc" x="-200%" y="-200%" width="400%" height="400%" filterUnits="objectBoundingBox" color-interpolation-filters="sRGB"><feGaussianBlur xmlns="http://www.w3.org/2000/svg" stdDeviation="1.2880827188517086"/></filter></defs><g filter="url(#WOOzLcWEvdOJR2Su23oQZM6GXhKFv6Cc)"><path d=" M 100.779 171.696 L 100.779 171.696 L 100.589 171.805 L 100.059 171.5 L 100.249 171.39 L 100.249 171.39 Q 100.273 171.376 100.249 171.362 L 100.249 171.362 L 98.489 170.346 L 98.489 170.346 Q 98.461 170.33 98.437 170.344 L 98.437 170.344 L 97.926 170.639 L 97.926 170.639 Q 97.902 170.653 97.93 170.669 L 97.93 170.669 L 99.69 171.685 L 99.69 171.685 Q 99.918 171.816 99.941 171.991 L 99.941 171.991 L 99.941 171.991 Q 99.965 172.166 99.765 172.281 L 99.765 172.281 L 99.254 172.576 L 99.254 172.576 Q 99.054 172.692 98.751 172.678 L 98.751 172.678 L 98.751 172.678 Q 98.448 172.664 98.221 172.533 L 98.221 172.533 L 96.461 171.517 L 96.461 171.517 Q 96.23 171.384 96.208 171.21 L 96.208 171.21 L 96.208 171.21 Q 96.187 171.036 96.387 170.921 L 96.387 170.921 L 96.576 170.811 L 97.102 171.115 L 96.912 171.224 L 96.912 171.224 Q 96.888 171.238 96.916 171.254 L 96.916 171.254 L 98.676 172.27 L 98.676 172.27 Q 98.7 172.284 98.725 172.27 L 98.725 172.27 L 99.235 171.976 L 99.235 171.976 Q 99.259 171.962 99.235 171.948 L 99.235 171.948 L 97.475 170.931 L 97.475 170.931 Q 97.244 170.798 97.222 170.624 L 97.222 170.624 L 97.222 170.624 Q 97.201 170.451 97.401 170.335 L 97.401 170.335 L 97.911 170.04 L 97.911 170.04 Q 98.111 169.925 98.412 169.937 L 98.412 169.937 L 98.412 169.937 Q 98.713 169.95 98.944 170.083 L 98.944 170.083 L 100.705 171.1 L 100.705 171.1 Q 100.932 171.231 100.955 171.405 L 100.955 171.405 L 100.955 171.405 Q 100.979 171.58 100.779 171.696 Z  M 100.846 173.527 L 100.846 173.527 L 102.642 174.564 L 102.191 174.825 L 100.394 173.788 L 100.394 173.788 Q 100.167 173.657 100.146 173.483 L 100.146 173.483 L 100.146 173.483 Q 100.124 173.309 100.321 173.196 L 100.321 173.196 L 101.369 172.59 L 101.369 172.59 Q 101.566 172.477 101.867 172.489 L 101.867 172.489 L 101.867 172.489 Q 102.168 172.502 102.395 172.633 L 102.395 172.633 L 104.183 173.665 L 103.731 173.926 L 101.943 172.894 L 101.943 172.894 Q 101.915 172.878 101.891 172.892 L 101.891 172.892 L 100.842 173.497 L 100.842 173.497 Q 100.818 173.511 100.846 173.527 Z  M 105.221 174.265 L 107.017 175.302 L 107.017 175.302 Q 107.244 175.433 107.266 175.607 L 107.266 175.607 L 107.266 175.607 Q 107.288 175.78 107.091 175.894 L 107.091 175.894 L 105.567 176.774 L 103.77 175.737 L 103.77 175.737 Q 103.543 175.606 103.522 175.432 L 103.522 175.432 L 103.522 175.432 Q 103.5 175.258 103.697 175.145 L 103.697 175.145 L 104.449 174.711 L 106.273 175.764 L 106.569 175.593 L 106.569 175.593 Q 106.593 175.579 106.566 175.563 L 106.566 175.563 L 104.769 174.526 L 105.221 174.265 L 105.221 174.265 Z  M 104.222 175.476 L 105.497 176.212 L 105.817 176.027 L 104.515 175.275 L 104.218 175.446 L 104.218 175.446 Q 104.194 175.46 104.222 175.476 L 104.222 175.476 L 104.222 175.476 Z  M 108.621 176.228 L 110.417 177.265 L 110.417 177.265 Q 110.644 177.396 110.666 177.57 L 110.666 177.57 L 110.666 177.57 Q 110.687 177.743 110.491 177.857 L 110.491 177.857 L 108.966 178.737 L 108.445 178.436 L 109.969 177.556 L 109.969 177.556 Q 109.993 177.542 109.965 177.526 L 109.965 177.526 L 108.719 176.806 L 108.719 176.806 Q 108.691 176.79 108.667 176.804 L 108.667 176.804 L 107.142 177.684 L 106.621 177.383 L 108.621 176.228 L 108.621 176.228 Z  M 112.057 178.211 L 113.853 179.248 L 113.853 179.248 Q 114.08 179.379 114.102 179.553 L 114.102 179.553 L 114.102 179.553 Q 114.123 179.727 113.927 179.84 L 113.927 179.84 L 112.402 180.721 L 111.88 180.419 L 113.405 179.539 L 113.405 179.539 Q 113.429 179.525 113.401 179.509 L 113.401 179.509 L 112.155 178.789 L 112.155 178.789 Q 112.127 178.773 112.102 178.787 L 112.102 178.787 L 110.578 179.667 L 110.056 179.366 L 112.057 178.211 L 112.057 178.211 Z  M 114.006 181.646 L 113.484 181.345 L 115.484 180.19 L 116.006 180.491 L 114.006 181.646 L 114.006 181.646 Z  M 115.685 180.075 L 116.14 179.812 L 116.662 180.113 L 116.206 180.376 L 115.685 180.075 L 115.685 180.075 Z  M 117.084 181.114 L 118.88 182.151 L 118.88 182.151 Q 119.107 182.282 119.129 182.456 L 119.129 182.456 L 119.129 182.456 Q 119.151 182.629 118.954 182.743 L 118.954 182.743 L 117.429 183.623 L 116.908 183.322 L 118.432 182.442 L 118.432 182.442 Q 118.456 182.428 118.428 182.412 L 118.428 182.412 L 117.182 181.692 L 117.182 181.692 Q 117.154 181.676 117.13 181.69 L 117.13 181.69 L 115.605 182.57 L 115.084 182.269 L 117.084 181.114 L 117.084 181.114 Z  M 122.298 184.674 L 120.456 185.737 L 120.456 185.737 Q 120.26 185.851 119.961 185.839 L 119.961 185.839 L 119.961 185.839 Q 119.662 185.828 119.435 185.697 L 119.435 185.697 L 118.021 184.881 L 118.476 184.618 L 119.89 185.434 L 119.89 185.434 Q 119.914 185.448 119.935 185.436 L 119.935 185.436 L 120.252 185.253 L 118.977 184.517 L 118.977 184.517 Q 118.75 184.386 118.729 184.212 L 118.729 184.212 L 118.729 184.212 Q 118.707 184.038 118.904 183.925 L 118.904 183.925 L 119.952 183.319 L 119.952 183.319 Q 120.149 183.206 120.45 183.218 L 120.45 183.218 L 120.45 183.218 Q 120.751 183.231 120.978 183.362 L 120.978 183.362 L 122.228 184.084 L 122.228 184.084 Q 122.455 184.215 122.475 184.388 L 122.475 184.388 L 122.475 184.388 Q 122.495 184.56 122.298 184.674 L 122.298 184.674 L 122.298 184.674 Z  M 119.429 184.256 L 119.429 184.256 L 120.68 184.978 L 120.68 184.978 Q 120.704 184.992 120.728 184.978 L 120.728 184.978 L 121.776 184.372 L 121.776 184.372 Q 121.8 184.359 121.777 184.345 L 121.777 184.345 L 120.526 183.623 L 120.526 183.623 Q 120.498 183.607 120.474 183.621 L 120.474 183.621 L 119.425 184.226 L 119.425 184.226 Q 119.401 184.24 119.429 184.256 Z  M 122.315 185.922 L 122.837 186.223 L 122.385 186.484 L 121.863 186.183 L 122.315 185.922 L 122.315 185.922 Z  M 123.831 186.798 L 124.353 187.099 L 123.901 187.36 L 123.38 187.058 L 123.831 186.798 L 123.831 186.798 Z  M 125.347 187.673 L 125.869 187.974 L 125.417 188.235 L 124.896 187.934 L 125.347 187.673 L 125.347 187.673 Z " fill="rgb(255,255,255)"/></g><path d=" M 100.779 171.696 L 100.779 171.696 L 100.589 171.805 L 100.059 171.5 L 100.249 171.39 L 100.249 171.39 Q 100.273 171.376 100.249 171.362 L 100.249 171.362 L 98.489 170.346 L 98.489 170.346 Q 98.461 170.33 98.437 170.344 L 98.437 170.344 L 97.926 170.639 L 97.926 170.639 Q 97.902 170.653 97.93 170.669 L 97.93 170.669 L 99.69 171.685 L 99.69 171.685 Q 99.918 171.816 99.941 171.991 L 99.941 171.991 L 99.941 171.991 Q 99.965 172.166 99.765 172.281 L 99.765 172.281 L 99.254 172.576 L 99.254 172.576 Q 99.054 172.692 98.751 172.678 L 98.751 172.678 L 98.751 172.678 Q 98.448 172.664 98.221 172.533 L 98.221 172.533 L 96.461 171.517 L 96.461 171.517 Q 96.23 171.384 96.208 171.21 L 96.208 171.21 L 96.208 171.21 Q 96.187 171.036 96.387 170.921 L 96.387 170.921 L 96.576 170.811 L 97.102 171.115 L 96.912 171.224 L 96.912 171.224 Q 96.888 171.238 96.916 171.254 L 96.916 171.254 L 98.676 172.27 L 98.676 172.27 Q 98.7 172.284 98.725 172.27 L 98.725 172.27 L 99.235 171.976 L 99.235 171.976 Q 99.259 171.962 99.235 171.948 L 99.235 171.948 L 97.475 170.931 L 97.475 170.931 Q 97.244 170.798 97.222 170.624 L 97.222 170.624 L 97.222 170.624 Q 97.201 170.451 97.401 170.335 L 97.401 170.335 L 97.911 170.04 L 97.911 170.04 Q 98.111 169.925 98.412 169.937 L 98.412 169.937 L 98.412 169.937 Q 98.713 169.95 98.944 170.083 L 98.944 170.083 L 100.705 171.1 L 100.705 171.1 Q 100.932 171.231 100.955 171.405 L 100.955 171.405 L 100.955 171.405 Q 100.979 171.58 100.779 171.696 Z  M 100.846 173.527 L 100.846 173.527 L 102.642 174.564 L 102.191 174.825 L 100.394 173.788 L 100.394 173.788 Q 100.167 173.657 100.146 173.483 L 100.146 173.483 L 100.146 173.483 Q 100.124 173.309 100.321 173.196 L 100.321 173.196 L 101.369 172.59 L 101.369 172.59 Q 101.566 172.477 101.867 172.489 L 101.867 172.489 L 101.867 172.489 Q 102.168 172.502 102.395 172.633 L 102.395 172.633 L 104.183 173.665 L 103.731 173.926 L 101.943 172.894 L 101.943 172.894 Q 101.915 172.878 101.891 172.892 L 101.891 172.892 L 100.842 173.497 L 100.842 173.497 Q 100.818 173.511 100.846 173.527 Z  M 105.221 174.265 L 107.017 175.302 L 107.017 175.302 Q 107.244 175.433 107.266 175.607 L 107.266 175.607 L 107.266 175.607 Q 107.288 175.78 107.091 175.894 L 107.091 175.894 L 105.567 176.774 L 103.77 175.737 L 103.77 175.737 Q 103.543 175.606 103.522 175.432 L 103.522 175.432 L 103.522 175.432 Q 103.5 175.258 103.697 175.145 L 103.697 175.145 L 104.449 174.711 L 106.273 175.764 L 106.569 175.593 L 106.569 175.593 Q 106.593 175.579 106.566 175.563 L 106.566 175.563 L 104.769 174.526 L 105.221 174.265 L 105.221 174.265 Z  M 104.222 175.476 L 105.497 176.212 L 105.817 176.027 L 104.515 175.275 L 104.218 175.446 L 104.218 175.446 Q 104.194 175.46 104.222 175.476 L 104.222 175.476 L 104.222 175.476 Z  M 108.621 176.228 L 110.417 177.265 L 110.417 177.265 Q 110.644 177.396 110.666 177.57 L 110.666 177.57 L 110.666 177.57 Q 110.687 177.743 110.491 177.857 L 110.491 177.857 L 108.966 178.737 L 108.445 178.436 L 109.969 177.556 L 109.969 177.556 Q 109.993 177.542 109.965 177.526 L 109.965 177.526 L 108.719 176.806 L 108.719 176.806 Q 108.691 176.79 108.667 176.804 L 108.667 176.804 L 107.142 177.684 L 106.621 177.383 L 108.621 176.228 L 108.621 176.228 Z  M 112.057 178.211 L 113.853 179.248 L 113.853 179.248 Q 114.08 179.379 114.102 179.553 L 114.102 179.553 L 114.102 179.553 Q 114.123 179.727 113.927 179.84 L 113.927 179.84 L 112.402 180.721 L 111.88 180.419 L 113.405 179.539 L 113.405 179.539 Q 113.429 179.525 113.401 179.509 L 113.401 179.509 L 112.155 178.789 L 112.155 178.789 Q 112.127 178.773 112.102 178.787 L 112.102 178.787 L 110.578 179.667 L 110.056 179.366 L 112.057 178.211 L 112.057 178.211 Z  M 114.006 181.646 L 113.484 181.345 L 115.484 180.19 L 116.006 180.491 L 114.006 181.646 L 114.006 181.646 Z  M 115.685 180.075 L 116.14 179.812 L 116.662 180.113 L 116.206 180.376 L 115.685 180.075 L 115.685 180.075 Z  M 117.084 181.114 L 118.88 182.151 L 118.88 182.151 Q 119.107 182.282 119.129 182.456 L 119.129 182.456 L 119.129 182.456 Q 119.151 182.629 118.954 182.743 L 118.954 182.743 L 117.429 183.623 L 116.908 183.322 L 118.432 182.442 L 118.432 182.442 Q 118.456 182.428 118.428 182.412 L 118.428 182.412 L 117.182 181.692 L 117.182 181.692 Q 117.154 181.676 117.13 181.69 L 117.13 181.69 L 115.605 182.57 L 115.084 182.269 L 117.084 181.114 L 117.084 181.114 Z  M 122.298 184.674 L 120.456 185.737 L 120.456 185.737 Q 120.26 185.851 119.961 185.839 L 119.961 185.839 L 119.961 185.839 Q 119.662 185.828 119.435 185.697 L 119.435 185.697 L 118.021 184.881 L 118.476 184.618 L 119.89 185.434 L 119.89 185.434 Q 119.914 185.448 119.935 185.436 L 119.935 185.436 L 120.252 185.253 L 118.977 184.517 L 118.977 184.517 Q 118.75 184.386 118.729 184.212 L 118.729 184.212 L 118.729 184.212 Q 118.707 184.038 118.904 183.925 L 118.904 183.925 L 119.952 183.319 L 119.952 183.319 Q 120.149 183.206 120.45 183.218 L 120.45 183.218 L 120.45 183.218 Q 120.751 183.231 120.978 183.362 L 120.978 183.362 L 122.228 184.084 L 122.228 184.084 Q 122.455 184.215 122.475 184.388 L 122.475 184.388 L 122.475 184.388 Q 122.495 184.56 122.298 184.674 L 122.298 184.674 L 122.298 184.674 Z  M 119.429 184.256 L 119.429 184.256 L 120.68 184.978 L 120.68 184.978 Q 120.704 184.992 120.728 184.978 L 120.728 184.978 L 121.776 184.372 L 121.776 184.372 Q 121.8 184.359 121.777 184.345 L 121.777 184.345 L 120.526 183.623 L 120.526 183.623 Q 120.498 183.607 120.474 183.621 L 120.474 183.621 L 119.425 184.226 L 119.425 184.226 Q 119.401 184.24 119.429 184.256 Z  M 122.315 185.922 L 122.837 186.223 L 122.385 186.484 L 121.863 186.183 L 122.315 185.922 L 122.315 185.922 Z  M 123.831 186.798 L 124.353 187.099 L 123.901 187.36 L 123.38 187.058 L 123.831 186.798 L 123.831 186.798 Z  M 125.347 187.673 L 125.869 187.974 L 125.417 188.235 L 124.896 187.934 L 125.347 187.673 L 125.347 187.673 Z " fill="rgb(255,255,255)"/></g></svg>