<?xml version="1.0" encoding="UTF-8" standalone="no"?>
<!-- Generator: Gravit.io -->
<svg style="isolation:isolate" xmlns="http://www.w3.org/2000/svg" height="400" width="502" xmlns:xlink="http://www.w3.org/1999/xlink" viewBox="-2 0 502 400">
 <g id="null">
  <defs>
   <filter id="yKDk861CqbQ3EakiNYf1XDN0qcG9f7OV" y="-200%" x="-200%" height="400%" width="400%">
    <feOffset dy="5" xmlns="http://www.w3.org/2000/svg" result="offOut" dx="5" in="SourceAlpha"/>
    <feGaussianBlur xmlns="http://www.w3.org/2000/svg" stdDeviation="7.5" result="blurOut" in="offOut"/>
    <feComponentTransfer xmlns="http://www.w3.org/2000/svg" result="opacOut" in="blurOut">
     <feFuncA xmlns="http://www.w3.org/2000/svg" type="table" tableValues="0 0.5"/>
    </feComponentTransfer>
    <feBlend xmlns="http://www.w3.org/2000/svg" mode="normal" in2="opacOut" in="SourceGraphic"/>
   </filter>
  </defs>
  <g filter="url(#yKDk861CqbQ3EakiNYf1XDN0qcG9f7OV)">
   <radialGradient id="_rgradient_0">
    <stop stop-color="#2ea1db" offset="0"/>
    <stop stop-color="#00bcd4" offset="1"/>
   </radialGradient>
   <path d="m39.15 336v-264.95q3.15 4.9 13.125 18.725t23.1 32.025 27.825 38.68q14.7 20.47 27.65 38.5 12.95 18.02 22.57 31.32 9.63 13.3 12.78 17.5 1.05-1.75 6.65-9.45t13.83-19.25q8.22-11.55 18.72-26.08 10.5-14.52 21.52-29.74 11.03-15.23 21.7-30.28 10.68-15.05 19.78-27.48 9.1-12.42 15.58-21.695 6.47-9.275 9.27-12.775v264.95h-40.6v-142.1q0-2.8 0.53-5.95 0.52-3.15 0.52-4.55-3.15 4.2-9.98 14.18-6.82 9.97-15.74 22.74-8.93 12.78-18.73 26.96-9.8 14.17-18.55 26.77t-15.4 22.23q-6.65 9.62-9.1 13.47-2.45-3.15-9.62-13.13-7.18-9.97-16.8-23.27-9.63-13.3-20.3-28.35-10.68-15.05-19.78-28t-15.75-22.22q-6.65-9.28-7.7-11.38 0 1.4 0.525 4.55t0.525 5.95v142.1h-38.15z" fill="url(#_rgradient_0)"/>
  </g>
  <defs>
   <filter id="NmCN8rIZluwb2RUxgVJZBzsJs2MaGkhl" y="-200%" x="-200%" height="400%" width="400%">
    <feOffset dy="5" xmlns="http://www.w3.org/2000/svg" result="offOut" dx="5" in="SourceAlpha"/>
    <feGaussianBlur xmlns="http://www.w3.org/2000/svg" stdDeviation="7.5" result="blurOut" in="offOut"/>
    <feComponentTransfer xmlns="http://www.w3.org/2000/svg" result="opacOut" in="blurOut">
     <feFuncA xmlns="http://www.w3.org/2000/svg" type="table" tableValues="0 0.5"/>
    </feComponentTransfer>
    <feBlend xmlns="http://www.w3.org/2000/svg" mode="normal" in2="opacOut" in="SourceGraphic"/>
   </filter>
  </defs>
  <g filter="url(#NmCN8rIZluwb2RUxgVJZBzsJs2MaGkhl)">
   <linearGradient id="_lgradient_0" y1="50%" y2="50%">
    <stop stop-color="#424242" offset="0"/>
    <stop stop-color="#555" offset="1"/>
   </linearGradient>
   <rect height="35" width="50" y="71" x="310.5" fill="url(#_lgradient_0)"/>
  </g>
  <defs>
   <filter id="EzMAiYXtB43xu71Suwd9ZwNa28fPKdyh" y="-200%" x="-200%" height="400%" width="400%">
    <feOffset dy="5" xmlns="http://www.w3.org/2000/svg" result="offOut" dx="5" in="SourceAlpha"/>
    <feGaussianBlur xmlns="http://www.w3.org/2000/svg" stdDeviation="7.5" result="blurOut" in="offOut"/>
    <feComponentTransfer xmlns="http://www.w3.org/2000/svg" result="opacOut" in="blurOut">
     <feFuncA xmlns="http://www.w3.org/2000/svg" type="table" tableValues="0 0.5"/>
    </feComponentTransfer>
    <feBlend xmlns="http://www.w3.org/2000/svg" mode="normal" in2="opacOut" in="SourceGraphic"/>
   </filter>
  </defs>
  <g filter="url(#EzMAiYXtB43xu71Suwd9ZwNa28fPKdyh)">
   <rect height="35" width="100" y="196" x="310.5" fill="url(#_lgradient_0)"/>
  </g>
  <defs>
   <filter id="4gorakXglOQJgKF0zrNM3tUl1LGTMXFl" y="-200%" x="-200%" height="400%" width="400%">
    <feOffset dy="5" xmlns="http://www.w3.org/2000/svg" result="offOut" dx="5" in="SourceAlpha"/>
    <feGaussianBlur xmlns="http://www.w3.org/2000/svg" stdDeviation="7.5" result="blurOut" in="offOut"/>
    <feComponentTransfer xmlns="http://www.w3.org/2000/svg" result="opacOut" in="blurOut">
     <feFuncA xmlns="http://www.w3.org/2000/svg" type="table" tableValues="0 0.5"/>
    </feComponentTransfer>
    <feBlend xmlns="http://www.w3.org/2000/svg" mode="normal" in2="opacOut" in="SourceGraphic"/>
   </filter>
  </defs>
  <g filter="url(#4gorakXglOQJgKF0zrNM3tUl1LGTMXFl)">
   <rect height="35" width="150" y="301" x="310.5" fill="url(#_lgradient_0)"/>
  </g>
 </g>
</svg>
