<?xml version="1.0" standalone="no"?><!-- Generator: Gravit.io --><svg xmlns="http://www.w3.org/2000/svg" xmlns:xlink="http://www.w3.org/1999/xlink" style="isolation:isolate" viewBox="0 0 410 140" width="410" height="140"><g><g><g><radialGradient id="_rgradient_1" fx="0.5" fy="0.5" cx="0.5" cy="0.5" r="0.5" gradientTransform="matrix(110.32,0,0,115.033,5,5.815)" gradientUnits="userSpaceOnUse"><stop offset="0%" stop-opacity="1" style="stop-color:rgb(46,161,219)"/><stop offset="100%" stop-opacity="1" style="stop-color:rgb(0,188,212)"/></radialGradient><path d=" M 5 120.845 L 5 5.815 L 5 5.817 Q 6.367 7.944 10.698 13.946 Q 15.029 19.948 20.728 27.85 Q 26.426 35.752 32.808 44.641 Q 39.19 53.531 44.812 61.358 Q 50.436 69.184 54.615 74.957 Q 58.794 80.731 60.16 82.555 Q 60.617 81.795 63.047 78.45 Q 65.476 75.106 69.049 70.093 Q 72.622 65.079 77.178 58.774 Q 81.735 52.467 86.525 45.857 Q 91.31 39.247 95.946 32.713 Q 100.582 26.178 104.533 20.784 Q 108.483 15.39 111.295 11.363 Q 114.102 7.336 115.32 5.817 L 115.32 120.847 L 97.696 120.847 L 97.696 59.153 Q 97.696 57.941 97.918 56.569 Q 98.147 55.203 98.147 54.597 Q 96.781 56.421 93.82 60.754 Q 90.853 65.081 86.983 70.627 Q 83.107 76.177 78.853 82.329 Q 74.595 88.48 70.799 93.956 Q 66.997 99.421 64.11 103.6 Q 61.223 107.779 60.16 109.454 Q 59.097 108.088 55.981 103.755 Q 52.866 99.421 48.687 93.648 Q 44.508 87.874 39.874 81.34 Q 35.239 74.805 31.289 69.186 Q 27.337 63.561 24.45 59.536 Q 21.563 55.506 21.107 54.597 Q 21.107 55.203 21.335 56.569 Q 21.563 57.941 21.563 59.153 L 21.563 120.847 L 5 120.847 L 5 120.845 Z " fill="url(#_rgradient_1)"/></g><g><rect x="122.809" y="5.795" width="21.708" height="15.195" transform="matrix(1,0,0,1,0,0)" fill="rgb(255,255,255)"/></g><g><rect x="122.809" y="60.066" width="43.416" height="15.195" transform="matrix(1,0,0,1,0,0)" fill="rgb(255,255,255)"/></g><g><rect x="122.809" y="105.65" width="65.124" height="15.195" transform="matrix(1,0,0,1,0,0)" fill="rgb(255,255,255)"/></g></g><path d=" M 197.468 114.957 L 217.86 114.957 L 217.86 107.371 L 203.517 107.371 Q 202.259 107.371 201.156 106.896 Q 200.047 106.422 199.235 105.604 Q 198.423 104.793 197.943 103.689 Q 197.468 102.58 197.468 101.323 L 197.468 94.354 Q 197.468 93.096 197.943 91.987 Q 198.423 90.884 199.235 90.067 Q 200.047 89.255 201.156 88.78 Q 202.259 88.306 203.517 88.306 L 222.644 88.306 L 222.644 94.354 L 203.517 94.354 L 203.517 101.323 L 217.86 101.323 Q 219.117 101.323 220.203 101.797 Q 221.295 102.277 222.124 103.089 Q 222.953 103.901 223.428 105.01 Q 223.908 106.113 223.908 107.371 L 223.908 114.957 Q 223.908 116.215 223.428 117.318 Q 222.953 118.427 222.124 119.239 Q 221.295 120.05 220.203 120.531 Q 219.117 121.005 217.86 121.005 L 197.468 121.005 L 197.468 114.957 L 197.468 114.957 Z  M 262.255 94.354 L 262.255 114.957 Q 262.255 116.215 261.781 117.318 Q 261.306 118.427 260.489 119.239 Q 259.677 120.05 258.574 120.531 Q 257.465 121.005 256.207 121.005 L 239.349 121.005 L 239.349 134.205 L 233.329 134.205 L 233.329 88.306 L 239.349 88.306 L 239.349 93.828 Q 239.44 92.662 239.966 91.667 Q 240.486 90.667 241.286 89.918 Q 242.081 89.163 243.144 88.735 Q 244.202 88.306 245.397 88.306 L 256.207 88.306 Q 257.465 88.306 258.574 88.78 Q 259.677 89.255 260.489 90.067 Q 261.306 90.884 261.781 91.987 Q 262.255 93.096 262.255 94.354 Z  M 239.349 114.957 L 256.207 114.957 L 256.207 94.354 L 239.349 94.354 L 239.349 114.957 Z  M 272.328 114.957 L 272.328 106.725 Q 272.328 105.467 272.802 104.375 Q 273.277 103.289 274.094 102.46 Q 274.906 101.631 276.009 101.157 Q 277.118 100.677 278.342 100.677 L 293.943 100.677 L 293.943 94.354 L 274.197 94.354 L 274.197 88.306 L 293.943 88.306 Q 295.2 88.306 296.309 88.78 Q 297.413 89.255 298.224 90.067 Q 299.042 90.884 299.516 91.987 Q 299.991 93.096 299.991 94.354 L 299.991 121.005 L 293.943 121.005 L 293.943 115.477 Q 293.851 116.615 293.331 117.627 Q 292.805 118.638 291.993 119.393 Q 291.181 120.148 290.135 120.576 Q 289.089 121.005 287.923 121.005 L 278.342 121.005 Q 277.118 121.005 276.009 120.531 Q 274.906 120.05 274.094 119.239 Q 273.277 118.427 272.802 117.318 Q 272.328 116.215 272.328 114.957 L 272.328 114.957 Z  M 278.342 106.725 L 278.342 114.957 L 293.943 114.957 L 293.943 106.725 L 278.342 106.725 L 278.342 106.725 Z  M 328.545 94.354 L 316.083 94.354 L 316.083 121.005 L 310.064 121.005 L 310.064 88.306 L 316.083 88.306 L 316.083 94.074 Q 316.14 92.879 316.632 91.822 Q 317.124 90.758 317.941 89.975 Q 318.753 89.192 319.828 88.752 Q 320.902 88.306 322.131 88.306 L 328.545 88.306 Q 329.803 88.306 330.895 88.78 Q 331.987 89.255 332.816 90.067 Q 333.645 90.884 334.119 91.987 Q 334.594 93.096 334.594 94.354 L 334.594 99.882 L 328.545 99.882 L 328.545 94.354 L 328.545 94.354 Z  M 341.477 94.354 L 341.477 88.306 L 368.522 88.306 L 368.522 89.929 L 351.115 114.957 L 368.522 114.957 L 368.522 121.005 L 340.859 121.005 L 340.859 119.376 L 358.272 94.354 L 341.477 94.354 L 341.477 94.354 Z  M 377.337 114.957 L 377.337 106.725 Q 377.337 105.467 377.812 104.375 Q 378.286 103.289 379.104 102.46 Q 379.915 101.631 381.024 101.157 Q 382.128 100.677 383.357 100.677 L 398.952 100.677 L 398.952 94.354 L 379.212 94.354 L 379.212 88.306 L 398.952 88.306 Q 400.209 88.306 401.318 88.78 Q 402.422 89.255 403.239 90.067 Q 404.051 90.884 404.526 91.987 Q 405 93.096 405 94.354 L 405 121.005 L 398.952 121.005 L 398.952 115.477 Q 398.86 116.615 398.34 117.627 Q 397.82 118.638 397.002 119.393 Q 396.191 120.148 395.144 120.576 Q 394.104 121.005 392.932 121.005 L 383.357 121.005 Q 382.128 121.005 381.024 120.531 Q 379.915 120.05 379.104 119.239 Q 378.286 118.427 377.812 117.318 Q 377.337 116.215 377.337 114.957 L 377.337 114.957 Z  M 383.357 106.725 L 383.357 114.957 L 398.952 114.957 L 398.952 106.725 L 383.357 106.725 Z " fill-rule="evenodd" fill="rgb(255,255,255)"/></g></svg>