<?xml version="1.0" standalone="no"?><!-- Generator: Gravit.io --><svg xmlns="http://www.w3.org/2000/svg" xmlns:xlink="http://www.w3.org/1999/xlink" style="isolation:isolate" viewBox="0 0 200 200" width="200" height="200"><g><path d=" M 13.516 69.762 C 11.575 69.762 10 68.188 10 66.246 L 10 13.505 C 10 11.564 11.575 9.989 13.516 9.989 L 66.257 9.989 C 68.199 9.989 69.773 11.564 69.773 13.505 C 69.773 15.448 68.199 17.021 66.257 17.021 L 17.032 17.021 L 17.032 66.246 C 17.032 68.188 15.459 69.762 13.516 69.762 Z " fill="rgb(21,21,26)"/><path d=" M 66.257 190.011 L 13.516 190.011 C 11.575 190.011 10 188.438 10 186.495 L 10 133.754 C 10 131.813 11.575 130.238 13.516 130.238 C 15.459 130.238 17.032 131.813 17.032 133.754 L 17.032 182.979 L 66.257 182.979 C 68.199 182.979 69.773 184.553 69.773 186.495 C 69.773 188.438 68.199 190.011 66.257 190.011 Z " fill="rgb(21,21,26)"/><path d=" M 186.154 190.011 L 133.414 190.011 C 131.472 190.011 129.897 188.438 129.897 186.495 C 129.897 184.553 131.472 182.979 133.414 182.979 L 182.638 182.979 L 182.638 133.754 C 182.638 131.813 184.213 130.238 186.154 130.238 C 188.097 130.238 189.67 131.813 189.67 133.754 L 189.67 186.495 C 189.67 188.438 188.097 190.011 186.154 190.011 Z " fill="rgb(21,21,26)"/><path d=" M 186.484 69.762 C 184.542 69.762 182.968 68.188 182.968 66.246 L 182.968 17.021 L 146.049 17.021 C 144.108 17.021 142.533 15.448 142.533 13.505 C 142.533 11.564 144.108 9.989 146.049 9.989 L 186.484 9.989 C 188.424 9.989 190 11.564 190 13.505 L 190 66.246 C 190 68.188 188.424 69.762 186.484 69.762 Z " fill="rgb(21,21,26)"/><path d=" M 133.749 17.021 C 131.808 17.021 130.231 15.448 130.231 13.505 C 130.231 11.564 131.804 9.989 133.746 9.989 L 133.749 9.989 C 135.691 9.989 137.265 11.564 137.265 13.505 C 137.265 15.448 135.692 17.021 133.749 17.021 Z " fill="rgb(21,21,26)"/></g><g><path d=" M 30.935 83.839 C 31.702 84.054 32.522 83.955 33.216 83.563 C 33.91 83.172 34.419 82.521 34.631 81.753 C 42.588 53.545 67.72 33.607 96.999 32.275 L 96.999 44.676 C 96.999 46.333 98.342 47.676 99.999 47.676 C 101.656 47.676 102.999 46.333 102.999 44.676 L 102.999 12.999 C 102.999 11.342 101.656 9.999 99.999 9.999 C 98.342 9.999 96.999 11.342 96.999 12.999 L 96.999 26.275 C 65.023 27.611 37.526 49.343 28.84 80.145 C 28.627 80.913 28.728 81.733 29.121 82.426 C 29.514 83.119 30.167 83.627 30.935 83.839 Z " fill="rgb(21,21,26)"/><path d=" M 81.349 165.253 C 53.353 157.142 33.625 132.113 32.277 102.998 L 44.677 102.998 C 46.334 102.998 47.677 101.654 47.677 99.998 C 47.677 98.341 46.334 96.998 44.677 96.998 L 13 96.998 C 11.343 96.998 10 98.341 10 99.998 C 10 101.654 11.343 102.998 13 102.998 L 26.277 102.998 C 27.635 134.79 49.137 162.168 79.702 171.022 C 79.97 171.098 80.247 171.137 80.525 171.137 C 82.021 171.136 83.287 170.033 83.494 168.552 C 83.701 167.071 82.785 165.663 81.346 165.253 L 81.349 165.253 Z " fill="rgb(21,21,26)"/><path d=" M 169.598 113.629 C 167.995 113.249 166.385 114.236 165.998 115.837 C 159.003 145.298 133.254 166.503 102.999 167.72 L 102.999 155.322 C 102.999 153.665 101.656 152.322 99.999 152.322 C 98.342 152.322 96.999 153.665 96.999 155.322 L 96.999 187.001 C 96.999 188.658 98.342 190.001 99.999 190.001 C 101.656 190.001 102.999 188.658 102.999 187.001 L 102.999 173.782 C 136.038 172.544 164.193 149.416 171.823 117.246 C 172.008 116.471 171.878 115.655 171.46 114.976 C 171.043 114.298 170.373 113.813 169.598 113.629 L 169.598 113.629 Z " fill="rgb(21,21,26)"/><path d=" M 77.957 74.011 L 78.334 73.696 C 79.212 73.037 79.658 71.95 79.499 70.864 C 79.34 69.778 78.601 68.866 77.571 68.485 C 76.542 68.104 75.386 68.316 74.559 69.038 L 74.079 69.436 C 72.817 70.509 72.663 72.403 73.736 73.665 C 74.809 74.928 76.702 75.081 77.965 74.008 L 77.957 74.011 Z " fill="rgb(21,21,26)"/><path d=" M 69.73 78.376 C 69.048 77.966 68.231 77.844 67.459 78.038 C 66.687 78.231 66.023 78.723 65.614 79.406 C 55.684 96.004 59.048 117.329 73.606 130.064 C 88.165 142.799 109.748 143.297 124.878 131.247 C 140.008 119.198 144.352 98.05 135.198 81.012 C 126.044 63.973 106.012 55.922 87.613 61.886 C 86.037 62.398 85.174 64.09 85.685 65.666 C 86.197 67.242 87.889 68.105 89.465 67.593 C 105.135 62.498 122.206 69.345 130.014 83.855 C 137.821 98.365 134.129 116.383 121.244 126.653 C 108.358 136.923 89.971 136.503 77.567 125.656 C 65.164 114.808 62.298 96.641 70.76 82.502 C 71.173 81.819 71.297 80.999 71.103 80.225 C 70.91 79.45 70.416 78.785 69.73 78.376 Z " fill="rgb(21,21,26)"/><path d=" M 186.998 96.998 L 173.721 96.998 C 172.397 64.884 150.483 37.302 119.501 28.752 C 118.467 28.47 117.361 28.761 116.6 29.516 C 115.838 30.27 115.537 31.373 115.81 32.41 C 116.083 33.446 116.888 34.259 117.922 34.541 C 146.299 42.373 166.404 67.589 167.721 96.998 L 155.32 96.998 C 153.664 96.998 152.321 98.341 152.321 99.998 C 152.321 101.654 153.664 102.998 155.32 102.998 L 187 102.998 C 188.657 102.998 190 101.654 190 99.998 C 190 98.341 188.657 96.998 187 96.998 L 186.998 96.998 Z " fill="rgb(21,21,26)"/><path d=" M 114.459 99.998 C 114.459 92.012 107.985 85.538 99.999 85.538 C 92.013 85.538 85.539 92.012 85.539 99.998 C 85.539 107.984 92.013 114.457 99.999 114.457 C 107.981 114.448 114.449 107.98 114.459 99.998 Z  M 91.537 99.998 C 91.537 95.326 95.324 91.538 99.996 91.538 C 104.668 91.537 108.455 95.324 108.456 99.996 C 108.457 104.668 104.671 108.456 99.999 108.457 C 95.329 108.451 91.546 104.667 91.539 99.998 L 91.537 99.998 Z " fill="rgb(21,21,26)"/></g></svg>