<?xml version="1.0" standalone="no"?><!-- Generator: Gravit.io --><svg xmlns="http://www.w3.org/2000/svg" xmlns:xlink="http://www.w3.org/1999/xlink" style="isolation:isolate" viewBox="0 0 200 200" width="200" height="200"><g><path d=" M 188.703 97.258 C 176.754 85.365 162.842 76.143 147.349 69.85 C 132.562 63.849 116.952 60.756 100.943 60.636 C 100.63 60.629 100.316 60.625 100 60.625 C 99.687 60.625 99.372 60.629 99.058 60.636 C 83.048 60.756 67.438 63.849 52.652 69.85 C 37.158 76.143 23.251 85.361 11.301 97.258 C 11.206 97.333 11.118 97.413 11.031 97.501 C 10.341 98.191 9.996 99.097 10 100 C 9.996 100.904 10.341 101.811 11.031 102.499 C 11.118 102.587 11.206 102.669 11.301 102.743 C 23.251 114.639 37.158 123.857 52.652 130.151 C 67.438 136.151 83.048 139.245 99.058 139.364 C 99.372 139.372 99.687 139.375 100 139.375 C 100.313 139.375 100.63 139.372 100.943 139.364 C 116.952 139.245 132.562 136.151 147.349 130.151 C 162.885 123.839 176.831 114.587 188.801 102.641 C 189.55 101.983 190 101.02 190 99.987 C 190 98.91 189.509 97.916 188.703 97.258 L 188.703 97.258 Z  M 18.57 100 C 34.258 85.189 53.295 75.116 73.933 70.518 C 65.775 77.733 60.625 88.275 60.625 100 C 60.625 111.726 65.775 122.268 73.933 129.482 C 53.295 124.884 34.258 114.812 18.57 100 L 18.57 100 Z  M 67.656 100 C 67.656 82.166 82.165 67.656 100 67.656 C 117.835 67.656 132.344 82.166 132.344 100 C 132.344 117.835 117.835 132.344 100 132.344 C 82.165 132.344 67.656 117.835 67.656 100 L 67.656 100 Z  M 126.068 129.482 C 134.226 122.268 139.375 111.726 139.375 100 C 139.375 88.275 134.226 77.733 126.068 70.518 C 146.706 75.116 165.742 85.189 181.43 100 C 165.742 114.812 146.706 124.884 126.068 129.482 Z " fill="rgb(21,21,26)"/><path d=" M 100 117.578 C 90.308 117.578 82.422 109.693 82.422 100 C 82.422 90.308 90.308 82.422 100 82.422 C 109.693 82.422 117.578 90.308 117.578 100 C 117.578 109.693 109.693 117.578 100 117.578 Z  M 100 89.453 C 94.184 89.453 89.453 94.185 89.453 100 C 89.453 105.816 94.184 110.547 100 110.547 C 105.816 110.547 110.547 105.816 110.547 100 C 110.547 94.185 105.816 89.453 100 89.453 Z " fill="rgb(21,21,26)"/><path d=" M 13.516 69.766 C 11.574 69.766 10 68.192 10 66.25 L 10 13.516 C 10 11.574 11.574 10 13.516 10 L 66.25 10 C 68.192 10 69.766 11.574 69.766 13.516 C 69.766 15.458 68.192 17.031 66.25 17.031 L 17.031 17.031 L 17.031 66.25 C 17.031 68.192 15.458 69.766 13.516 69.766 Z " fill="rgb(21,21,26)"/><path d=" M 66.25 190 L 13.516 190 C 11.574 190 10 188.427 10 186.484 L 10 133.75 C 10 131.809 11.574 130.234 13.516 130.234 C 15.458 130.234 17.031 131.809 17.031 133.75 L 17.031 182.969 L 66.25 182.969 C 68.192 182.969 69.766 184.543 69.766 186.484 C 69.766 188.427 68.192 190 66.25 190 Z " fill="rgb(21,21,26)"/><path d=" M 186.133 190 L 133.398 190 C 131.457 190 129.883 188.427 129.883 186.484 C 129.883 184.543 131.457 182.969 133.398 182.969 L 182.617 182.969 L 182.617 133.75 C 182.617 131.809 184.192 130.234 186.133 130.234 C 188.075 130.234 189.648 131.809 189.648 133.75 L 189.648 186.484 C 189.648 188.427 188.075 190 186.133 190 Z " fill="rgb(21,21,26)"/><path d=" M 186.462 69.766 C 184.521 69.766 182.947 68.192 182.947 66.25 L 182.947 17.031 L 146.033 17.031 C 144.091 17.031 142.517 15.458 142.517 13.516 C 142.517 11.574 144.091 10 146.033 10 L 186.462 10 C 188.403 10 189.978 11.574 189.978 13.516 L 189.978 66.25 C 189.978 68.192 188.403 69.766 186.462 69.766 Z " fill="rgb(21,21,26)"/><path d=" M 133.734 17.031 C 131.793 17.031 130.217 15.458 130.217 13.516 C 130.217 11.574 131.789 10 133.731 10 L 133.734 10 C 135.676 10 137.249 11.574 137.249 13.516 C 137.249 15.458 135.677 17.031 133.734 17.031 Z " fill="rgb(21,21,26)"/></g></svg>