<?xml version="1.0" standalone="no"?><!-- Generator: Gravit.io --><svg xmlns="http://www.w3.org/2000/svg" xmlns:xlink="http://www.w3.org/1999/xlink" style="isolation:isolate" viewBox="0 0 500 300" width="500" height="300"><g><g><path d=" M 158.114 256.506 L 192.586 256.506 L 192.586 179.053 L 158.114 179.053 L 158.114 256.506 Z " fill="rgb(54,54,53)"/><g><clipPath id="_clipPath_wBHGlDYHF2Yqpr4i1okGptthOgkJCW4u"><path d=" M 174.746 256.506 L 192.586 256.506 L 192.586 179.053 L 174.746 179.053 L 174.746 256.506 Z " fill="rgb(255,255,255)"/></clipPath><g clip-path="url(#_clipPath_wBHGlDYHF2Yqpr4i1okGptthOgkJCW4u)"><g><path d=" M 174.746 256.506 L 192.586 256.506 L 192.586 179.053 L 174.746 179.053 L 174.746 256.506 Z " fill="rgb(54,54,53)"/></g></g></g><path d=" M 203.265 185.66 L 144.165 185.66 L 144.165 168.562 L 203.265 168.562 L 203.265 185.66" fill="rgb(91,92,94)"/><path d=" M 261.218 76.595 C 261.218 76.595 171.138 67.89 158.269 70.341 C 145.4 72.793 56.254 93.679 50.046 104.41 C 47.507 108.799 226.289 132.484 261.218 76.595 Z " fill="rgb(54,54,53)"/><path d=" M 261.218 76.595 C 261.218 76.595 171.138 67.89 158.269 70.341 C 145.4 72.793 58.617 100.415 58.519 105.485 C 58.42 110.555 226.289 132.484 261.218 76.595 Z " fill="rgb(255,79,73)"/><path d=" M 261.218 81.015 C 261.218 81.015 171.138 72.31 158.269 74.761 C 145.4 77.213 64.116 104.724 64.017 109.794 C 63.919 114.864 226.289 136.904 261.218 81.015 Z " fill="rgb(54,54,53)"/><path d=" M 77.887 91.352 C 77.887 91.352 10 112.254 10 136.213 C 15.032 142.2 23.378 150.783 33.612 155.297 C 102.976 155.297 247.468 155.297 304.337 155.297 C 315.007 155.297 322.136 150.769 327.636 147.534 C 332.971 144.396 343.287 129.869 343.485 115.945 C 343.722 99.287 334.988 83.201 312.748 80.146 C 285.223 76.365 252.061 76.595 252.061 76.595 C 252.061 76.595 179.957 117.22 77.887 91.352" fill="rgb(255,79,73)"/><path d=" M 10.255 136.512 L 10.255 136.512 C 14.81 141.893 21.951 149.212 30.686 153.861 C 31.466 153.43 32.23 152.898 32.426 152.386 C 33.504 149.563 30.201 140.256 30.201 140.256 L 10.255 136.512" fill="rgb(54,54,53)"/><path d=" M 105.334 134.544 C 105.334 151.186 91.843 164.677 75.201 164.677 C 58.559 164.677 45.067 151.186 45.067 134.544 C 45.067 117.902 58.559 104.41 75.201 104.41 C 91.843 104.41 105.334 117.902 105.334 134.544" fill="rgb(54,54,53)"/><path d=" M 100.265 134.544 C 100.265 148.386 89.043 159.608 75.201 159.608 C 61.358 159.608 50.137 148.386 50.137 134.544 C 50.137 120.701 61.358 109.48 75.201 109.48 C 89.043 109.48 100.265 120.701 100.265 134.544 Z " fill="rgb(122,126,130)"/><path d=" M 97.305 134.544 C 97.305 146.752 87.409 156.649 75.201 156.649 C 62.993 156.649 53.096 146.752 53.096 134.544 C 53.096 122.336 62.993 112.439 75.201 112.439 C 87.409 112.439 97.305 122.336 97.305 134.544 Z " fill="rgb(54,54,53)"/><path d=" M 88.283 146.808 C 83.644 145.301 78.951 135.763 78.951 135.763 C 78.951 135.763 88.354 130.804 92.994 132.311 C 94.735 132.877 96.205 133.861 97.292 135.081 C 97.296 134.902 97.305 134.724 97.305 134.544 C 97.305 129.493 95.608 124.841 92.758 121.119 C 92.596 122.746 91.985 124.408 90.907 125.892 C 88.04 129.838 77.518 131.354 77.518 131.354 C 77.518 131.354 75.709 120.878 78.576 116.932 C 79.655 115.446 81.049 114.351 82.55 113.695 C 80.25 112.884 77.778 112.439 75.201 112.439 C 72.624 112.439 70.152 112.884 67.852 113.695 C 69.352 114.351 70.746 115.446 71.825 116.932 C 74.693 120.878 72.883 131.354 72.883 131.354 C 72.883 131.354 62.361 129.838 59.494 125.892 C 58.416 124.408 57.806 122.746 57.644 121.119 C 54.793 124.841 53.096 129.493 53.096 134.544 C 53.096 134.724 53.105 134.902 53.109 135.081 C 54.197 133.861 55.666 132.877 57.408 132.311 C 62.047 130.804 71.451 135.763 71.451 135.763 C 71.451 135.763 66.757 145.301 62.118 146.808 C 60.373 147.375 58.604 147.442 57.006 147.092 C 59.835 151.187 64.009 154.278 68.891 155.729 C 68.064 154.317 67.58 152.612 67.58 150.776 C 67.58 145.898 75.201 138.486 75.201 138.486 C 75.201 138.486 82.822 145.898 82.822 150.776 C 82.822 152.612 82.338 154.317 81.51 155.729 C 86.392 154.278 90.566 151.187 93.395 147.092 C 91.797 147.442 90.028 147.375 88.283 146.808" fill="rgb(164,166,169)"/><path d=" M 82.822 134.544 C 82.822 138.753 79.41 142.165 75.201 142.165 C 70.992 142.165 67.58 138.753 67.58 134.544 C 67.58 130.335 70.992 126.923 75.201 126.923 C 79.41 126.923 82.822 130.335 82.822 134.544 Z " fill="rgb(164,166,169)"/><path d=" M 79.445 134.544 C 79.445 136.888 77.545 138.789 75.201 138.789 C 72.856 138.789 70.956 136.888 70.956 134.544 C 70.956 132.2 72.856 130.298 75.201 130.298 C 77.545 130.298 79.445 132.2 79.445 134.544 Z " fill="rgb(80,82,86)"/><path d=" M 192.586 145.186 L 188.549 145.186 L 192.586 144.931 L 192.586 145.186 Z " fill="rgb(245,117,141)"/><path d=" M 25.595 172.445 L 313.457 172.445 L 313.457 164.677 L 25.595 164.677 L 25.595 172.445 Z " fill="rgb(54,54,53)"/><path d=" M 45.067 168.562 L 13.944 148.218 L 13.944 164.677 L 25.595 172.445 L 45.067 168.562 Z " fill="rgb(54,54,53)"/><path d=" M 225.657 267.151 L 125.811 267.151 L 125.811 256.506 L 225.657 256.506 L 225.657 267.151 Z " fill="rgb(91,92,94)"/><path d=" M 208.865 155.297 C 203.5 155.297 198.069 155.297 192.586 155.297 L 192.586 145.186 L 208.865 145.186 L 208.865 155.297 Z " fill="rgb(255,79,73)"/><path d=" M 208.865 76.535 C 203.356 76.125 197.848 75.74 192.586 75.411 L 192.586 70.991 C 197.848 71.321 203.355 71.705 208.865 72.116 L 208.865 76.535 Z " fill="rgb(255,79,73)"/><path d=" M 192.586 95.831 L 192.586 75.411 C 197.848 75.74 203.356 76.125 208.865 76.535 L 208.865 92.342 C 203.82 93.6 198.388 94.786 192.586 95.831" fill="rgb(54,54,53)"/><path d=" M 192.586 144.931 L 192.586 95.831 C 198.388 94.786 203.82 93.6 208.865 92.342 L 208.865 143.904 L 192.586 144.931" fill="rgb(255,79,73)"/><path d=" M 208.865 145.186 L 192.586 145.186 L 192.586 144.931 L 208.865 143.904 L 208.865 145.186" fill="rgb(203,99,117)"/><path d=" M 377.754 223.4 L 321.109 223.4 C 321.109 223.4 321.768 273.723 308.924 280.246 C 337.247 280.246 349.432 280.246 349.432 280.246 C 349.432 280.246 361.617 280.246 389.939 280.246 C 377.095 273.723 377.754 223.4 377.754 223.4" fill="rgb(91,92,94)"/><path d=" M 378.08 237.109 L 320.783 237.109 C 320.883 235.146 320.953 233.315 321.003 231.669 L 377.861 231.669 C 377.91 233.315 377.98 235.146 378.08 237.109 Z " fill="rgb(54,54,53)"/><path d=" M 479.406 231.669 L 219.454 231.669 C 213.607 231.669 208.865 226.928 208.865 221.08 L 208.865 26.726 C 208.865 20.877 213.607 16.137 219.454 16.137 L 479.406 16.137 C 485.256 16.137 490 20.877 490 26.726 L 490 221.08 C 490 226.928 485.256 231.669 479.406 231.669 Z " fill="rgb(91,92,94)"/><path d=" M 208.865 193.427 L 490 193.427 L 490 24.69 L 208.865 24.69 L 208.865 193.427 Z " fill="rgb(50,46,56)"/><path d=" M 391.875 283.863 L 306.988 283.863 C 305.955 283.863 305.117 283.026 305.117 281.992 L 305.117 278.5 C 305.117 277.466 305.955 276.629 306.988 276.629 L 391.875 276.629 C 392.909 276.629 393.746 277.466 393.746 278.5 L 393.746 281.992 C 393.746 283.026 392.909 283.863 391.875 283.863 Z " fill="rgb(54,54,53)"/><path d=" M 208.865 105.957 L 208.865 47.09 C 213.75 45.741 217.505 44.794 219.715 44.373 C 221.967 43.944 225.879 43.756 231.02 43.756 C 247.458 43.756 276.391 45.679 303.224 47.793 L 303.224 54.055 C 276.391 51.941 247.458 50.019 231.02 50.019 C 225.879 50.019 221.967 50.206 219.715 50.635 C 217.455 51.066 213.703 52.043 208.865 53.436 L 208.865 105.957 L 208.865 105.957" fill="rgb(255,255,255)"/><path d=" M 208.865 112.235 L 208.865 53.436 C 213.703 52.043 217.455 51.066 219.715 50.635 C 221.967 50.206 225.879 50.019 231.02 50.019 C 247.458 50.019 276.391 51.941 303.224 54.055 L 303.224 72.371 C 279.082 79.311 246.966 85.631 208.865 86.29 L 208.865 112.235 L 208.865 112.235 Z " fill="rgb(91,92,94)"/><path d=" M 303.224 164.738 C 272.948 164.738 240.712 164.738 208.865 164.738 L 208.865 112.235 L 208.865 86.29 C 246.966 85.631 279.082 79.311 303.224 72.371 L 303.224 106.195 L 292.404 106.195 L 303.224 107.509 L 303.224 147.851 L 262.616 150.413 L 303.224 150.413 L 303.224 164.738 Z  M 441.077 162.656 C 447.247 155.253 450.962 145.727 450.962 135.335 C 450.962 111.756 431.846 92.642 408.267 92.642 C 398.986 92.642 390.397 95.603 383.393 100.632 L 383.393 53.828 C 399.646 54.451 420.019 55.714 438.582 58.264 C 467.392 62.222 480.204 81.61 481.932 102.94 C 481.05 92.051 477.277 81.669 469.962 73.586 C 469.962 73.585 469.962 73.583 469.958 73.581 C 469.944 73.565 469.931 73.55 469.918 73.534 C 469.909 73.527 469.904 73.52 469.9 73.513 C 469.891 73.505 469.882 73.497 469.877 73.49 C 469.864 73.477 469.851 73.463 469.842 73.45 C 469.837 73.444 469.833 73.44 469.824 73.435 C 469.815 73.422 469.802 73.408 469.788 73.395 C 469.788 73.392 469.784 73.388 469.779 73.385 C 469.766 73.368 469.748 73.352 469.735 73.336 C 469.73 73.333 469.73 73.33 469.726 73.327 C 469.713 73.309 469.695 73.293 469.681 73.276 C 469.677 73.274 469.677 73.273 469.677 73.272 C 469.641 73.236 469.61 73.2 469.575 73.164 C 469.575 73.162 469.575 73.161 469.57 73.159 C 469.557 73.142 469.539 73.124 469.526 73.107 C 469.521 73.105 469.521 73.102 469.517 73.101 C 469.503 73.083 469.485 73.066 469.468 73.048 L 469.468 73.048 L 469.468 73.048 C 469.459 73.053 469.454 73.058 469.445 73.064 C 469.441 73.064 469.441 73.065 469.441 73.066 C 469.432 73.071 469.423 73.076 469.414 73.08 C 469.414 73.081 469.414 73.081 469.414 73.082 C 469.405 73.087 469.396 73.093 469.387 73.098 C 469.387 73.098 469.387 73.098 469.387 73.099 C 469.379 73.104 469.37 73.109 469.361 73.114 C 469.361 73.114 469.361 73.115 469.361 73.115 C 469.343 73.126 469.325 73.137 469.312 73.147 C 469.307 73.148 469.307 73.149 469.307 73.15 C 469.298 73.154 469.289 73.159 469.285 73.164 C 469.285 73.164 469.281 73.166 469.281 73.166 C 469.272 73.171 469.263 73.177 469.254 73.182 C 469.254 73.183 469.254 73.183 469.254 73.184 C 469.245 73.188 469.24 73.192 469.232 73.196 C 469.232 73.198 469.227 73.2 469.223 73.202 C 469.218 73.205 469.214 73.208 469.209 73.211 C 469.2 73.216 469.196 73.222 469.187 73.227 C 469.187 73.227 469.183 73.228 469.183 73.23 C 469.178 73.233 469.169 73.237 469.165 73.241 C 469.165 73.241 469.165 73.242 469.16 73.243 C 464.768 76.116 462.264 81.532 463.556 87.131 L 467.459 104.034 C 468.831 109.965 474.11 114.166 480.199 114.166 L 481.736 114.166 C 481.959 112.494 482.097 110.817 482.128 109.146 C 481.767 128.826 467.213 149.305 459.676 153.74 C 454.669 156.684 448.708 160.386 441.077 162.656 M 482.128 109.102 C 482.128 109.098 482.128 109.095 482.128 109.092 C 482.128 109.095 482.128 109.098 482.128 109.102 Z  M 482.128 109.045 C 482.128 109.043 482.128 109.04 482.128 109.037 C 482.128 109.04 482.128 109.043 482.128 109.045 Z  M 482.128 108.983 C 482.128 108.959 482.128 108.935 482.133 108.91 C 482.128 108.935 482.128 108.959 482.128 108.983 Z  M 482.133 108.88 C 482.133 108.866 482.133 108.851 482.133 108.837 C 482.133 108.852 482.133 108.865 482.133 108.88 Z  M 482.133 108.8 C 482.133 108.788 482.133 108.777 482.133 108.765 C 482.133 108.778 482.133 108.787 482.133 108.8 Z  M 482.133 108.726 C 482.133 108.715 482.133 108.704 482.133 108.692 C 482.133 108.704 482.133 108.715 482.133 108.726 Z  M 482.133 108.65 C 482.133 108.641 482.133 108.631 482.133 108.621 C 482.133 108.631 482.133 108.64 482.133 108.65 Z  M 482.133 108.577 C 482.133 108.568 482.133 108.559 482.133 108.55 C 482.133 108.559 482.133 108.569 482.133 108.577 Z  M 482.133 108.503 C 482.133 108.497 482.133 108.49 482.133 108.484 C 482.133 108.49 482.133 108.497 482.133 108.503 Z  M 482.137 108.226 C 482.137 108.224 482.137 108.224 482.137 108.223 C 482.137 108.224 482.137 108.224 482.137 108.226 Z  M 482.137 108.162 C 482.137 108.158 482.137 108.154 482.137 108.15 C 482.137 108.154 482.137 108.158 482.137 108.162 Z  M 482.137 108.091 C 482.137 108.087 482.137 108.084 482.137 108.08 C 482.137 108.084 482.137 108.088 482.137 108.091 Z  M 482.137 108.019 C 482.137 108.017 482.137 108.014 482.137 108.011 C 482.137 108.014 482.137 108.016 482.137 108.019 Z  M 482.137 107.947 C 482.137 107.946 482.137 107.946 482.137 107.945 L 482.137 107.947 Z  M 482.039 104.505 C 482.039 104.504 482.039 104.504 482.039 104.503 L 482.039 104.505 Z  M 482.035 104.441 C 482.035 104.438 482.035 104.435 482.035 104.431 C 482.035 104.434 482.035 104.438 482.035 104.441 Z  M 482.03 104.372 C 482.03 104.368 482.03 104.364 482.03 104.36 C 482.03 104.363 482.03 104.37 482.03 104.372 Z  M 482.026 104.303 C 482.026 104.298 482.026 104.293 482.026 104.288 C 482.026 104.293 482.026 104.299 482.026 104.303 Z  M 482.021 104.232 C 482.021 104.228 482.021 104.225 482.021 104.22 C 482.021 104.225 482.021 104.227 482.021 104.232 Z  M 482.017 104.161 L 482.017 104.159 L 482.017 104.161 Z  M 482.004 103.955 L 482.004 103.955 L 482.004 103.955 Z  M 482.004 103.899 C 482.004 103.893 481.999 103.888 481.999 103.882 C 481.999 103.888 482.004 103.893 482.004 103.899 Z  M 481.999 103.831 C 481.995 103.824 481.995 103.817 481.995 103.81 C 481.995 103.817 481.995 103.824 481.999 103.831 Z  M 481.995 103.763 C 481.99 103.753 481.99 103.745 481.99 103.735 C 481.99 103.744 481.99 103.754 481.995 103.763 Z  M 481.986 103.692 C 481.986 103.682 481.986 103.672 481.986 103.662 C 481.986 103.671 481.986 103.682 481.986 103.692 Z  M 481.981 103.621 C 481.981 103.609 481.981 103.597 481.981 103.586 C 481.981 103.597 481.981 103.609 481.981 103.621 Z  M 481.977 103.549 C 481.977 103.534 481.977 103.519 481.977 103.503 C 481.977 103.518 481.977 103.535 481.977 103.549 Z  M 481.972 103.477 C 481.972 103.453 481.968 103.43 481.968 103.405 C 481.968 103.428 481.972 103.454 481.972 103.477 Z  M 481.968 103.384 C 481.963 103.366 481.963 103.348 481.963 103.331 C 481.963 103.349 481.963 103.365 481.968 103.384 Z  M 481.959 103.308 C 481.959 103.291 481.959 103.275 481.955 103.257 C 481.959 103.274 481.959 103.291 481.959 103.308 Z  M 481.955 103.233 C 481.955 103.216 481.95 103.199 481.95 103.182 C 481.95 103.199 481.955 103.216 481.955 103.233 Z  M 481.95 103.159 C 481.946 103.141 481.946 103.124 481.946 103.106 C 481.946 103.124 481.946 103.142 481.95 103.159 Z  M 481.941 103.086 C 481.941 103.067 481.941 103.046 481.937 103.027 C 481.941 103.047 481.941 103.066 481.941 103.086 Z  M 481.937 103.013 C 481.937 102.99 481.932 102.966 481.932 102.943 C 481.932 102.967 481.937 102.989 481.937 103.013 Z " fill="rgb(255,255,255)"/><path d=" M 408.267 178.029 C 398.986 178.029 390.397 175.067 383.393 170.037 L 383.393 160.678 C 389.8 166.968 398.58 170.846 408.267 170.846 C 427.879 170.846 443.777 154.947 443.777 135.335 C 443.777 115.723 427.879 99.824 408.267 99.824 C 398.58 99.824 389.8 103.702 383.393 109.992 L 383.393 100.632 C 390.397 95.603 398.986 92.642 408.267 92.642 C 431.846 92.642 450.962 111.756 450.962 135.335 C 450.962 145.727 447.247 155.253 441.077 162.656 C 433.245 172.051 421.454 178.029 408.267 178.029" fill="rgb(91,92,94)"/><path d=" M 408.267 170.846 C 398.58 170.846 389.8 166.968 383.393 160.678 L 383.393 154.366 C 389.117 161.836 398.13 166.653 408.267 166.653 C 425.564 166.653 439.585 152.631 439.585 135.335 L 439.585 135.335 L 439.585 135.335 L 439.585 135.335 L 439.585 135.335 C 439.585 135.32 439.585 135.304 439.585 135.288 C 439.585 135.283 439.585 135.278 439.585 135.273 C 439.585 135.262 439.585 135.252 439.585 135.242 C 439.585 135.235 439.585 135.23 439.585 135.223 C 439.585 135.213 439.585 135.204 439.585 135.194 C 439.585 135.188 439.585 135.182 439.585 135.176 C 439.585 135.167 439.585 135.157 439.585 135.148 C 439.585 135.14 439.585 135.135 439.585 135.128 C 439.585 135.115 439.585 135.103 439.585 135.091 C 439.585 135.081 439.585 135.074 439.585 135.064 C 439.585 135.056 439.585 135.047 439.585 135.038 C 439.585 135.03 439.585 135.022 439.585 135.013 C 439.585 135.007 439.585 135 439.585 134.993 C 439.585 134.984 439.585 134.974 439.585 134.965 C 439.585 134.96 439.585 134.956 439.585 134.951 C 439.585 134.94 439.585 134.928 439.585 134.918 C 439.585 134.916 439.585 134.914 439.585 134.912 C 439.357 117.87 425.52 104.112 408.446 104.017 C 408.442 104.017 408.438 104.017 408.434 104.017 C 408.423 104.017 408.415 104.017 408.405 104.017 C 408.398 104.017 408.39 104.017 408.383 104.017 C 408.374 104.017 408.369 104.017 408.36 104.017 C 408.35 104.017 408.341 104.017 408.331 104.017 C 408.326 104.017 408.32 104.017 408.314 104.017 C 408.299 104.017 408.283 104.017 408.267 104.017 L 408.267 104.017 L 408.267 104.017 C 408.251 104.017 408.236 104.017 408.22 104.017 C 408.215 104.017 408.209 104.017 408.203 104.017 C 408.194 104.017 408.184 104.017 408.174 104.017 C 408.166 104.017 408.16 104.017 408.151 104.017 C 408.144 104.017 408.137 104.017 408.13 104.017 C 408.12 104.017 408.111 104.017 408.101 104.017 C 408.097 104.017 408.093 104.017 408.089 104.017 C 398.024 104.073 389.083 108.877 383.393 116.304 L 383.393 109.992 C 389.8 103.702 398.58 99.824 408.267 99.824 C 427.879 99.824 443.777 115.723 443.777 135.335 C 443.777 154.947 427.879 170.846 408.267 170.846" fill="rgb(201,200,198)"/><path d=" M 408.267 166.653 C 398.13 166.653 389.117 161.836 383.393 154.366 L 383.393 154.355 C 387.362 159.539 392.914 163.443 399.328 165.351 L 399.328 165.351 L 399.328 165.351 C 398.155 163.35 397.469 160.934 397.469 158.333 C 397.469 154.294 401.158 149.029 404.223 145.35 C 405.472 145.855 406.837 146.133 408.267 146.133 C 409.698 146.133 411.062 145.855 412.312 145.35 C 415.377 149.029 419.066 154.294 419.066 158.333 C 419.066 160.934 418.38 163.35 417.207 165.351 C 424.124 163.295 430.038 158.915 434.047 153.114 C 433.134 153.314 432.181 153.418 431.206 153.418 C 429.765 153.418 428.278 153.191 426.803 152.712 C 422.96 151.463 419.092 146.327 416.541 142.274 C 418.117 140.397 419.066 137.977 419.066 135.335 C 419.066 135.083 419.057 134.833 419.04 134.584 C 422.482 133.207 426.945 131.768 430.568 131.768 C 431.624 131.768 432.608 131.891 433.477 132.172 C 435.945 132.974 438.025 134.368 439.567 136.096 C 439.571 135.842 439.585 135.59 439.585 135.335 C 439.585 152.631 425.564 166.653 408.267 166.653 M 385.329 153.418 C 384.672 153.418 384.025 153.371 383.393 153.278 L 383.393 132.073 C 384.175 131.862 385.045 131.768 385.967 131.768 C 389.59 131.768 394.053 133.207 397.496 134.585 C 397.479 134.833 397.47 135.083 397.47 135.335 C 397.47 137.977 398.419 140.397 399.994 142.274 C 397.443 146.326 393.574 151.463 389.732 152.712 C 388.257 153.191 386.77 153.418 385.329 153.418 M 439.585 135.288 C 439.585 135.283 439.585 135.278 439.585 135.273 C 439.585 135.278 439.585 135.283 439.585 135.288 Z  M 439.585 135.242 C 439.585 135.236 439.585 135.229 439.585 135.223 C 439.585 135.23 439.585 135.235 439.585 135.242 Z  M 439.585 135.194 C 439.585 135.188 439.585 135.182 439.585 135.176 C 439.585 135.182 439.585 135.188 439.585 135.194 Z  M 439.585 135.148 C 439.585 135.141 439.585 135.135 439.585 135.128 C 439.585 135.135 439.585 135.14 439.585 135.148 Z  M 439.585 135.091 C 439.585 135.082 439.585 135.073 439.585 135.064 C 439.585 135.074 439.585 135.081 439.585 135.091 Z  M 439.585 135.038 C 439.585 135.03 439.585 135.022 439.585 135.013 C 439.585 135.022 439.585 135.03 439.585 135.038 Z  M 439.585 134.993 C 439.585 134.984 439.585 134.974 439.585 134.965 C 439.585 134.974 439.585 134.984 439.585 134.993 Z  M 439.585 134.951 C 439.585 134.94 439.585 134.929 439.585 134.918 C 439.585 134.928 439.585 134.94 439.585 134.951 Z  M 439.585 134.912 C 439.491 127.92 437.103 121.484 433.143 116.315 C 432.911 118.62 432.047 120.974 430.521 123.076 C 428.147 126.344 422.067 128.436 417.424 129.61 C 415.961 127.275 413.63 125.539 410.882 124.856 C 410.564 120.078 410.675 113.65 413.049 110.382 C 414.579 108.278 416.554 106.727 418.679 105.797 C 415.474 104.667 412.033 104.038 408.446 104.017 C 425.52 104.112 439.357 117.87 439.585 134.912 M 399.111 129.61 C 394.468 128.436 388.388 126.344 386.014 123.076 C 384.487 120.974 383.622 118.62 383.393 116.315 L 383.393 116.304 C 389.083 108.877 398.024 104.073 408.089 104.017 C 404.502 104.038 401.061 104.667 397.856 105.797 C 399.981 106.727 401.956 108.278 403.485 110.382 C 405.86 113.65 405.97 120.078 405.653 124.856 C 402.905 125.539 400.574 127.275 399.111 129.61 M 408.101 104.017 C 408.111 104.017 408.12 104.017 408.13 104.017 C 408.12 104.017 408.111 104.017 408.101 104.017 Z  M 408.434 104.017 C 408.424 104.017 408.414 104.017 408.405 104.017 C 408.415 104.017 408.423 104.017 408.434 104.017 Z  M 408.151 104.017 C 408.16 104.017 408.166 104.017 408.174 104.017 C 408.167 104.017 408.159 104.017 408.151 104.017 Z  M 408.383 104.017 C 408.375 104.017 408.368 104.017 408.36 104.017 C 408.369 104.017 408.374 104.017 408.383 104.017 Z  M 408.203 104.017 C 408.209 104.017 408.215 104.017 408.22 104.017 C 408.214 104.017 408.209 104.017 408.203 104.017 Z  M 408.331 104.017 C 408.325 104.017 408.32 104.017 408.314 104.017 C 408.32 104.017 408.326 104.017 408.331 104.017 Z " fill="rgb(91,92,94)"/><path d=" M 417.207 165.351 C 418.38 163.35 419.066 160.934 419.066 158.333 C 419.066 154.294 415.377 149.029 412.312 145.35 C 413.964 144.682 415.413 143.618 416.541 142.274 C 419.092 146.327 422.96 151.463 426.803 152.712 C 428.278 153.191 429.765 153.418 431.206 153.418 C 432.181 153.418 433.134 153.314 434.047 153.114 C 430.038 158.915 424.124 163.295 417.207 165.351 Z  M 399.328 165.351 C 392.914 163.443 387.362 159.539 383.393 154.355 L 383.393 153.278 C 384.025 153.371 384.672 153.418 385.329 153.418 C 386.77 153.418 388.257 153.191 389.732 152.712 C 393.574 151.463 397.443 146.326 399.994 142.274 C 401.122 143.617 402.571 144.682 404.223 145.35 C 401.158 149.029 397.469 154.294 397.469 158.333 C 397.469 160.934 398.155 163.35 399.328 165.351 Z  M 439.567 136.096 C 438.025 134.368 435.945 132.974 433.477 132.172 C 432.608 131.891 431.624 131.768 430.568 131.768 C 426.945 131.768 422.482 133.207 419.04 134.584 C 418.915 132.766 418.339 131.07 417.424 129.61 C 422.067 128.436 428.147 126.344 430.521 123.076 C 432.047 120.974 432.911 118.62 433.143 116.315 C 437.103 121.484 439.491 127.92 439.585 134.912 C 439.585 134.914 439.585 134.916 439.585 134.918 C 439.585 134.929 439.585 134.94 439.585 134.951 C 439.585 134.956 439.585 134.96 439.585 134.965 C 439.585 134.974 439.585 134.984 439.585 134.993 C 439.585 135 439.585 135.007 439.585 135.013 C 439.585 135.022 439.585 135.03 439.585 135.038 C 439.585 135.047 439.585 135.056 439.585 135.064 C 439.585 135.073 439.585 135.082 439.585 135.091 C 439.585 135.103 439.585 135.115 439.585 135.128 C 439.585 135.135 439.585 135.141 439.585 135.148 C 439.585 135.157 439.585 135.167 439.585 135.176 C 439.585 135.182 439.585 135.188 439.585 135.194 C 439.585 135.204 439.585 135.213 439.585 135.223 C 439.585 135.229 439.585 135.236 439.585 135.242 C 439.585 135.252 439.585 135.262 439.585 135.273 C 439.585 135.278 439.585 135.283 439.585 135.288 C 439.585 135.304 439.585 135.32 439.585 135.335 L 439.585 135.335 L 439.585 135.335 L 439.585 135.335 C 439.585 135.59 439.571 135.842 439.567 136.096 Z  M 397.496 134.585 C 394.053 133.207 389.59 131.768 385.967 131.768 C 385.045 131.768 384.175 131.862 383.393 132.073 L 383.393 116.315 C 383.622 118.62 384.487 120.974 386.014 123.076 C 388.388 126.344 394.468 128.436 399.111 129.61 C 398.196 131.07 397.62 132.766 397.496 134.585 M 405.653 124.856 C 405.97 120.078 405.86 113.65 403.485 110.382 C 401.956 108.278 399.981 106.727 397.856 105.797 C 401.061 104.667 404.502 104.038 408.089 104.017 C 408.093 104.017 408.097 104.017 408.101 104.017 C 408.111 104.017 408.12 104.017 408.13 104.017 C 408.137 104.017 408.144 104.017 408.151 104.017 C 408.159 104.017 408.167 104.017 408.174 104.017 C 408.184 104.017 408.194 104.017 408.203 104.017 C 408.209 104.017 408.214 104.017 408.22 104.017 C 408.236 104.017 408.251 104.017 408.267 104.017 L 408.267 104.017 L 408.267 104.017 C 408.283 104.017 408.299 104.017 408.314 104.017 C 408.32 104.017 408.325 104.017 408.331 104.017 C 408.341 104.017 408.35 104.017 408.36 104.017 C 408.368 104.017 408.375 104.017 408.383 104.017 C 408.39 104.017 408.398 104.017 408.405 104.017 C 408.414 104.017 408.424 104.017 408.434 104.017 C 408.438 104.017 408.442 104.017 408.446 104.017 C 412.033 104.038 415.474 104.667 418.679 105.797 C 416.554 106.727 414.579 108.278 413.049 110.382 C 410.675 113.65 410.564 120.078 410.882 124.856 C 410.045 124.647 409.169 124.537 408.267 124.537 C 407.365 124.537 406.49 124.647 405.653 124.856" fill="rgb(201,200,198)"/><path d=" M 408.267 146.133 C 406.837 146.133 405.472 145.855 404.223 145.35 C 402.571 144.682 401.122 143.617 399.994 142.274 C 398.419 140.397 397.47 137.977 397.47 135.335 C 397.47 135.083 397.479 134.833 397.496 134.585 C 397.62 132.766 398.196 131.07 399.111 129.61 C 400.574 127.275 402.905 125.539 405.653 124.856 C 406.49 124.647 407.365 124.537 408.267 124.537 C 409.169 124.537 410.045 124.647 410.882 124.856 C 413.63 125.539 415.961 127.275 417.424 129.61 C 418.339 131.07 418.915 132.766 419.04 134.584 C 419.057 134.833 419.066 135.083 419.066 135.335 C 419.066 137.977 418.117 140.397 416.541 142.274 C 415.413 143.618 413.964 144.682 412.312 145.35 C 411.062 145.855 409.698 146.133 408.267 146.133 M 408.267 129.321 C 404.946 129.321 402.253 132.013 402.253 135.335 C 402.253 138.657 404.946 141.35 408.267 141.35 C 411.589 141.35 414.282 138.657 414.282 135.335 C 414.282 132.013 411.589 129.321 408.267 129.321 Z " fill="rgb(201,200,198)"/><path d=" M 408.267 141.35 C 404.946 141.35 402.253 138.657 402.253 135.335 C 402.253 132.013 404.946 129.321 408.267 129.321 C 411.589 129.321 414.282 132.013 414.282 135.335 C 414.282 138.657 411.589 141.35 408.267 141.35 Z " fill="rgb(201,200,198)"/><path d=" M 303.224 150.413 L 262.616 150.413 L 303.224 147.851 L 303.224 150.413 Z  M 303.224 107.509 L 292.404 106.195 L 303.224 106.195 L 303.224 107.509 Z " fill="rgb(91,92,94)"/><path d=" M 481.736 114.166 L 480.199 114.166 C 474.11 114.166 468.831 109.965 467.459 104.034 L 463.556 87.131 C 462.264 81.532 464.768 76.116 469.16 73.243 C 466.042 75.283 463.886 78.609 463.351 82.37 C 464.224 88.715 469.655 93.607 476.239 93.607 C 477.633 93.607 478.974 93.382 480.235 92.976 C 478.346 85.813 475.001 79.152 469.962 73.586 C 477.277 81.669 481.05 92.051 481.932 102.94 C 481.932 102.941 481.932 102.942 481.932 102.943 C 481.932 102.966 481.937 102.99 481.937 103.013 C 481.937 103.018 481.937 103.022 481.937 103.027 C 481.941 103.046 481.941 103.067 481.941 103.086 C 481.946 103.094 481.946 103.099 481.946 103.106 C 481.946 103.124 481.946 103.141 481.95 103.159 C 481.95 103.166 481.95 103.175 481.95 103.182 C 481.95 103.199 481.955 103.216 481.955 103.233 C 481.955 103.241 481.955 103.249 481.955 103.257 C 481.959 103.275 481.959 103.291 481.959 103.308 C 481.959 103.316 481.963 103.324 481.963 103.331 C 481.963 103.348 481.963 103.366 481.968 103.384 C 481.968 103.391 481.968 103.398 481.968 103.405 C 481.968 103.43 481.972 103.453 481.972 103.477 C 481.972 103.486 481.972 103.495 481.977 103.503 C 481.977 103.519 481.977 103.534 481.977 103.549 C 481.977 103.561 481.981 103.574 481.981 103.586 C 481.981 103.597 481.981 103.609 481.981 103.621 C 481.986 103.634 481.986 103.648 481.986 103.662 C 481.986 103.672 481.986 103.682 481.986 103.692 C 481.99 103.707 481.99 103.72 481.99 103.735 C 481.99 103.745 481.99 103.753 481.995 103.763 C 481.995 103.778 481.995 103.794 481.995 103.81 C 481.995 103.817 481.995 103.824 481.999 103.831 C 481.999 103.848 481.999 103.865 481.999 103.882 C 481.999 103.888 482.004 103.893 482.004 103.899 C 482.004 103.917 482.004 103.936 482.004 103.955 L 482.004 103.955 C 482.008 104.023 482.012 104.091 482.017 104.159 L 482.017 104.161 C 482.021 104.181 482.021 104.2 482.021 104.22 C 482.021 104.225 482.021 104.228 482.021 104.232 C 482.026 104.25 482.026 104.27 482.026 104.288 C 482.026 104.293 482.026 104.298 482.026 104.303 C 482.026 104.322 482.03 104.341 482.03 104.36 C 482.03 104.364 482.03 104.368 482.03 104.372 C 482.03 104.392 482.035 104.411 482.035 104.431 C 482.035 104.435 482.035 104.438 482.035 104.441 C 482.035 104.461 482.039 104.483 482.039 104.503 C 482.039 104.504 482.039 104.504 482.039 104.505 C 482.102 105.647 482.133 106.795 482.137 107.945 C 482.137 107.946 482.137 107.946 482.137 107.947 C 482.137 107.968 482.137 107.99 482.137 108.011 C 482.137 108.014 482.137 108.017 482.137 108.019 C 482.137 108.04 482.137 108.059 482.137 108.08 C 482.137 108.084 482.137 108.087 482.137 108.091 C 482.137 108.11 482.137 108.13 482.137 108.15 C 482.137 108.154 482.137 108.158 482.137 108.162 C 482.137 108.183 482.137 108.202 482.137 108.223 C 482.137 108.224 482.137 108.224 482.137 108.226 C 482.137 108.312 482.137 108.398 482.133 108.484 C 482.133 108.49 482.133 108.497 482.133 108.503 C 482.133 108.519 482.133 108.534 482.133 108.55 C 482.133 108.559 482.133 108.568 482.133 108.577 C 482.133 108.592 482.133 108.607 482.133 108.621 C 482.133 108.631 482.133 108.641 482.133 108.65 C 482.133 108.664 482.133 108.678 482.133 108.692 C 482.133 108.704 482.133 108.715 482.133 108.726 C 482.133 108.739 482.133 108.752 482.133 108.765 C 482.133 108.777 482.133 108.788 482.133 108.8 C 482.133 108.813 482.133 108.825 482.133 108.837 C 482.133 108.851 482.133 108.866 482.133 108.88 C 482.133 108.89 482.133 108.9 482.133 108.91 C 482.128 108.935 482.128 108.959 482.128 108.983 L 482.128 108.983 C 482.128 109.001 482.128 109.019 482.128 109.037 C 482.128 109.04 482.128 109.043 482.128 109.045 C 482.128 109.061 482.128 109.076 482.128 109.092 C 482.128 109.095 482.128 109.098 482.128 109.102 C 482.128 109.117 482.128 109.132 482.128 109.146 C 482.097 110.817 481.959 112.494 481.736 114.166 M 469.958 73.581 C 469.944 73.566 469.931 73.55 469.918 73.534 C 469.931 73.55 469.944 73.565 469.958 73.581 Z  M 469.9 73.513 C 469.891 73.505 469.882 73.497 469.877 73.49 C 469.882 73.497 469.891 73.505 469.9 73.513 Z  M 469.842 73.45 C 469.837 73.445 469.833 73.44 469.824 73.435 C 469.833 73.44 469.837 73.444 469.842 73.45 Z  M 469.788 73.395 C 469.788 73.392 469.784 73.388 469.779 73.385 C 469.784 73.388 469.788 73.392 469.788 73.395 Z  M 469.735 73.336 C 469.735 73.333 469.73 73.33 469.726 73.327 C 469.73 73.33 469.73 73.333 469.735 73.336 Z  M 469.681 73.276 C 469.677 73.274 469.677 73.273 469.677 73.272 C 469.677 73.273 469.677 73.274 469.681 73.276 Z  M 469.165 73.241 C 469.169 73.237 469.178 73.233 469.183 73.23 C 469.178 73.233 469.169 73.237 469.165 73.241 Z  M 469.187 73.227 C 469.196 73.222 469.2 73.216 469.209 73.211 C 469.2 73.217 469.196 73.222 469.187 73.227 Z  M 469.223 73.202 C 469.227 73.2 469.232 73.198 469.232 73.196 C 469.232 73.198 469.227 73.2 469.223 73.202 Z  M 469.254 73.184 C 469.254 73.183 469.254 73.183 469.254 73.182 C 469.254 73.183 469.254 73.183 469.254 73.184 Z  M 469.281 73.166 C 469.281 73.166 469.285 73.164 469.285 73.164 C 469.285 73.165 469.281 73.165 469.281 73.166 Z  M 469.575 73.164 C 469.575 73.162 469.575 73.161 469.57 73.159 C 469.575 73.161 469.575 73.162 469.575 73.164 Z  M 469.307 73.15 C 469.307 73.149 469.307 73.148 469.312 73.147 C 469.307 73.148 469.307 73.149 469.307 73.15 Z  M 469.361 73.115 C 469.361 73.115 469.361 73.114 469.361 73.114 C 469.361 73.114 469.361 73.115 469.361 73.115 Z  M 469.526 73.107 C 469.521 73.105 469.521 73.103 469.517 73.101 C 469.521 73.102 469.521 73.105 469.526 73.107 Z  M 469.387 73.099 C 469.387 73.098 469.387 73.098 469.387 73.098 C 469.387 73.098 469.387 73.098 469.387 73.099 Z  M 469.414 73.082 C 469.414 73.081 469.414 73.081 469.414 73.08 C 469.414 73.081 469.414 73.081 469.414 73.082 Z  M 469.441 73.066 C 469.441 73.065 469.441 73.064 469.445 73.064 C 469.441 73.064 469.441 73.065 469.441 73.066 Z " fill="rgb(91,92,94)"/><path d=" M 476.239 93.607 C 469.655 93.607 464.224 88.715 463.351 82.37 C 463.886 78.609 466.042 75.283 469.16 73.243 C 469.165 73.242 469.165 73.241 469.165 73.241 C 469.169 73.237 469.178 73.233 469.183 73.23 C 469.183 73.228 469.187 73.227 469.187 73.227 C 469.196 73.222 469.2 73.217 469.209 73.211 C 469.214 73.208 469.218 73.205 469.223 73.202 C 469.227 73.2 469.232 73.198 469.232 73.196 C 469.24 73.192 469.245 73.188 469.254 73.184 C 469.254 73.183 469.254 73.183 469.254 73.182 C 469.263 73.177 469.272 73.171 469.281 73.166 C 469.281 73.165 469.285 73.165 469.285 73.164 C 469.289 73.159 469.298 73.154 469.307 73.15 C 469.307 73.149 469.307 73.148 469.312 73.147 C 469.325 73.137 469.343 73.126 469.361 73.115 C 469.361 73.115 469.361 73.114 469.361 73.114 C 469.37 73.109 469.379 73.104 469.387 73.099 C 469.387 73.098 469.387 73.098 469.387 73.098 C 469.396 73.093 469.405 73.087 469.414 73.082 C 469.414 73.081 469.414 73.081 469.414 73.08 C 469.423 73.076 469.432 73.071 469.441 73.066 C 469.441 73.065 469.441 73.064 469.445 73.064 C 469.454 73.058 469.459 73.053 469.468 73.048 L 469.468 73.048 L 469.468 73.048 C 469.485 73.066 469.503 73.083 469.517 73.101 C 469.521 73.103 469.521 73.105 469.526 73.107 C 469.539 73.124 469.557 73.142 469.57 73.159 C 469.575 73.161 469.575 73.162 469.575 73.164 C 469.61 73.2 469.641 73.236 469.677 73.272 C 469.677 73.273 469.677 73.274 469.681 73.276 C 469.695 73.293 469.713 73.309 469.726 73.327 C 469.73 73.33 469.735 73.333 469.735 73.336 C 469.748 73.352 469.766 73.368 469.779 73.385 C 469.784 73.388 469.788 73.392 469.788 73.395 C 469.802 73.408 469.815 73.422 469.824 73.435 C 469.833 73.44 469.837 73.445 469.842 73.45 C 469.851 73.463 469.864 73.477 469.877 73.49 C 469.882 73.497 469.891 73.505 469.9 73.513 C 469.904 73.52 469.909 73.527 469.918 73.534 C 469.931 73.55 469.944 73.566 469.958 73.581 C 469.962 73.583 469.962 73.585 469.962 73.586 C 475.001 79.152 478.346 85.813 480.235 92.976 C 478.974 93.382 477.633 93.607 476.239 93.607" fill="rgb(91,92,94)"/><path d=" M 383.393 193.427 L 374.205 193.427 L 374.205 164.738 C 375.246 164.738 376.286 164.738 377.313 164.738 C 379.166 166.689 381.202 168.464 383.393 170.037 L 383.393 193.427 M 371.706 193.427 L 303.224 193.427 L 303.224 164.738 C 327.752 164.738 350.988 164.738 371.706 164.738 L 371.706 193.427 M 383.393 53.828 C 380.152 53.704 377.072 53.605 374.205 53.527 L 374.205 24.69 L 371.706 24.69 L 371.706 53.462 C 369.485 53.408 367.41 53.366 365.51 53.334 C 365.531 53.301 365.553 53.265 365.574 53.232 C 365.574 53.232 335.958 50.371 303.224 47.793 L 303.224 24.69 L 383.393 24.69 L 383.393 53.828 Z " fill="rgb(46,75,219)"/><path d=" M 343.986 57.5 C 332.808 56.498 318.347 55.246 303.224 54.055 L 303.224 47.793 C 335.958 50.371 365.574 53.232 365.574 53.232 C 365.553 53.265 365.531 53.301 365.51 53.334 C 360.202 53.244 356.247 53.229 354.19 53.229 C 353.153 53.229 352.6 53.232 352.6 53.232 C 352.6 53.232 349.632 54.905 343.986 57.5" fill="rgb(71,67,80)"/><path d=" M 303.224 72.371 L 303.224 54.055 C 318.347 55.246 332.808 56.498 343.986 57.5 C 335.765 61.278 321.874 67.01 303.224 72.371 Z " fill="rgb(50,46,56)"/><path d=" M 377.313 164.738 C 376.286 164.738 375.246 164.738 374.205 164.738 L 374.205 161.079 C 375.173 162.357 376.21 163.578 377.313 164.738 Z  M 371.706 164.738 C 350.988 164.738 327.752 164.738 303.224 164.738 L 303.224 150.413 L 333.19 150.413 L 351.063 106.195 L 303.224 106.195 L 303.224 72.371 C 321.874 67.01 335.765 61.278 343.986 57.5 C 349.632 54.905 352.6 53.232 352.6 53.232 C 352.6 53.232 353.153 53.229 354.19 53.229 C 356.247 53.229 360.202 53.244 365.51 53.334 C 367.41 53.366 369.485 53.408 371.706 53.462 L 371.706 113.277 C 367.814 119.715 365.574 127.263 365.574 135.335 C 365.574 143.407 367.814 150.955 371.706 157.393 L 371.706 164.738 M 303.224 147.851 L 303.224 107.509 L 343.273 112.372 L 330.441 146.133 L 303.224 147.851 M 374.205 109.591 L 374.205 53.527 C 377.072 53.605 380.152 53.704 383.393 53.828 L 383.393 100.632 C 379.899 103.141 376.8 106.164 374.205 109.591" fill="rgb(71,67,80)"/><path d=" M 383.393 170.037 C 381.202 168.464 379.166 166.689 377.313 164.738 C 376.21 163.578 375.173 162.357 374.205 161.079 L 374.205 145.407 C 375.937 151.271 379.143 156.506 383.393 160.678 L 383.393 170.037 M 371.706 157.393 C 367.814 150.955 365.574 143.407 365.574 135.335 C 365.574 127.263 367.814 119.715 371.706 113.277 L 371.706 157.393 M 374.205 125.263 L 374.205 109.591 C 376.8 106.164 379.899 103.141 383.393 100.632 L 383.393 109.992 C 379.143 114.164 375.937 119.398 374.205 125.263" fill="rgb(50,46,56)"/><path d=" M 383.393 160.678 C 379.143 156.506 375.937 151.271 374.205 145.407 L 374.205 125.263 C 375.937 119.398 379.143 114.164 383.393 109.992 L 383.393 116.304 C 379.431 121.474 377.045 127.915 376.952 134.91 C 376.952 134.913 376.952 134.915 376.952 134.919 C 376.952 134.929 376.952 134.939 376.952 134.95 C 376.952 134.955 376.952 134.96 376.952 134.965 C 376.951 134.974 376.951 134.985 376.951 134.994 C 376.951 135 376.951 135.006 376.951 135.012 C 376.951 135.02 376.951 135.03 376.951 135.038 C 376.951 135.046 376.95 135.054 376.95 135.062 C 376.95 135.072 376.95 135.083 376.95 135.092 C 376.95 135.104 376.95 135.116 376.95 135.128 C 376.95 135.134 376.95 135.141 376.95 135.147 C 376.95 135.156 376.95 135.165 376.95 135.175 C 376.95 135.182 376.95 135.188 376.95 135.195 C 376.95 135.205 376.95 135.214 376.95 135.223 C 376.95 135.229 376.95 135.236 376.95 135.242 C 376.95 135.251 376.95 135.262 376.95 135.273 C 376.95 135.278 376.95 135.283 376.95 135.288 C 376.95 135.304 376.95 135.32 376.95 135.335 L 376.95 135.335 L 376.95 135.335 L 376.95 135.335 L 376.95 135.335 C 376.95 142.494 379.351 149.091 383.393 154.366 L 383.393 160.678" fill="rgb(71,67,80)"/><path d=" M 383.393 154.366 C 379.351 149.091 376.95 142.494 376.95 135.335 C 376.95 135.59 376.962 135.842 376.969 136.096 C 378.509 134.368 380.59 132.974 383.059 132.172 C 383.168 132.137 383.279 132.104 383.393 132.073 L 383.393 153.278 C 383.088 153.234 382.786 153.179 382.489 153.114 C 382.78 153.535 383.082 153.95 383.393 154.355 L 383.393 154.366 M 376.95 135.288 C 376.95 135.283 376.95 135.278 376.95 135.273 C 376.95 135.278 376.95 135.283 376.95 135.288 Z  M 376.95 135.242 C 376.95 135.236 376.95 135.229 376.95 135.223 C 376.95 135.23 376.95 135.235 376.95 135.242 Z  M 376.95 135.195 C 376.95 135.188 376.95 135.182 376.95 135.175 C 376.95 135.181 376.95 135.189 376.95 135.195 Z  M 376.95 135.147 C 376.95 135.141 376.95 135.134 376.95 135.128 C 376.95 135.135 376.95 135.14 376.95 135.147 Z  M 376.95 135.092 C 376.95 135.083 376.95 135.072 376.95 135.062 C 376.95 135.072 376.95 135.083 376.95 135.092 Z  M 376.951 135.038 C 376.951 135.03 376.951 135.02 376.951 135.012 C 376.951 135.021 376.951 135.03 376.951 135.038 Z  M 376.951 134.994 C 376.951 134.985 376.951 134.974 376.952 134.965 C 376.951 134.975 376.951 134.984 376.951 134.994 Z  M 376.952 134.95 C 376.952 134.939 376.952 134.929 376.952 134.919 C 376.952 134.929 376.952 134.94 376.952 134.95 Z  M 376.952 134.91 C 377.045 127.915 379.431 121.474 383.393 116.304 L 383.393 116.315 L 383.393 116.315 C 379.434 121.484 377.045 127.919 376.952 134.91 Z " fill="rgb(50,46,56)"/><path d=" M 383.393 154.355 C 383.082 153.95 382.78 153.535 382.489 153.114 C 382.786 153.179 383.088 153.234 383.393 153.278 L 383.393 154.355 Z  M 376.969 136.096 C 376.962 135.842 376.95 135.59 376.95 135.335 L 376.95 135.335 L 376.95 135.335 L 376.95 135.335 C 376.95 135.32 376.95 135.304 376.95 135.288 C 376.95 135.283 376.95 135.278 376.95 135.273 C 376.95 135.262 376.95 135.251 376.95 135.242 C 376.95 135.235 376.95 135.23 376.95 135.223 C 376.95 135.214 376.95 135.205 376.95 135.195 C 376.95 135.189 376.95 135.181 376.95 135.175 C 376.95 135.165 376.95 135.156 376.95 135.147 C 376.95 135.14 376.95 135.135 376.95 135.128 C 376.95 135.116 376.95 135.104 376.95 135.092 C 376.95 135.083 376.95 135.072 376.95 135.062 C 376.95 135.054 376.951 135.046 376.951 135.038 C 376.951 135.03 376.951 135.021 376.951 135.012 C 376.951 135.006 376.951 135 376.951 134.994 C 376.951 134.984 376.951 134.975 376.952 134.965 C 376.952 134.96 376.952 134.955 376.952 134.95 C 376.952 134.94 376.952 134.929 376.952 134.919 C 376.952 134.915 376.952 134.913 376.952 134.91 C 377.045 127.919 379.434 121.484 383.393 116.315 L 383.393 116.315 L 383.393 132.073 C 383.279 132.104 383.168 132.137 383.059 132.172 C 380.59 132.974 378.509 134.368 376.969 136.096 Z " fill="rgb(71,67,80)"/><path d=" M 333.19 150.413 L 303.224 150.413 L 303.224 147.851 L 330.441 146.133 L 343.273 112.372 L 303.224 107.509 L 303.224 106.195 L 351.063 106.195 L 333.19 150.413" fill="rgb(50,46,56)"/><path d=" M 374.205 193.427 L 371.706 193.427 L 371.706 164.738 C 372.542 164.738 373.378 164.738 374.205 164.738 L 374.205 193.427 Z  M 374.205 53.527 C 373.352 53.504 372.521 53.482 371.706 53.462 L 371.706 24.69 L 374.205 24.69 L 374.205 53.527 Z " fill="rgb(46,65,162)"/><path d=" M 374.205 164.738 C 373.378 164.738 372.542 164.738 371.706 164.738 L 371.706 157.393 C 372.476 158.666 373.311 159.897 374.205 161.079 L 374.205 164.738 M 371.706 113.277 L 371.706 53.462 C 372.521 53.482 373.352 53.504 374.205 53.527 L 374.205 109.591 C 373.311 110.773 372.476 112.004 371.706 113.277" fill="rgb(46,65,162)"/><path d=" M 374.205 161.079 C 373.311 159.897 372.476 158.666 371.706 157.393 L 371.706 113.277 C 372.476 112.004 373.311 110.773 374.205 109.591 L 374.205 125.263 C 373.263 128.456 372.757 131.836 372.757 135.335 C 372.757 138.834 373.263 142.214 374.205 145.407 L 374.205 161.079" fill="rgb(46,65,162)"/><path d=" M 374.205 145.407 C 373.263 142.214 372.757 138.834 372.757 135.335 C 372.757 131.836 373.263 128.456 374.205 125.263 L 374.205 145.407 Z " fill="rgb(46,65,162)"/><defs><filter id="3uxbLDRmnWHDogRRSZNn5fDwBIUyf4Om" x="348.124" y="84.782" width="49.35" height="49.351" filterUnits="userSpaceOnUse"><feGaussianBlur xmlns="http://www.w3.org/2000/svg" in="SourceGraphic" stdDeviation="2.146804531419514"/><feOffset xmlns="http://www.w3.org/2000/svg" dx="0" dy="0" result="pf_100_offsetBlur"/><feFlood xmlns="http://www.w3.org/2000/svg" flood-color="#FFFFFF" flood-opacity="1"/><feComposite xmlns="http://www.w3.org/2000/svg" in2="pf_100_offsetBlur" operator="in" result="pf_100_dropShadow"/><feBlend xmlns="http://www.w3.org/2000/svg" in="SourceGraphic" in2="pf_100_dropShadow" mode="normal"/></filter></defs><g filter="url(#3uxbLDRmnWHDogRRSZNn5fDwBIUyf4Om)"><path d=" M 372.799 92.851 C 363.642 92.851 356.193 100.3 356.193 109.457 C 356.193 118.614 363.642 126.063 372.799 126.063 C 381.955 126.063 389.405 118.614 389.405 109.457 C 389.405 100.3 381.955 92.851 372.799 92.851 L 372.799 92.851 Z  M 372.799 127.132 C 363.052 127.132 355.124 119.204 355.124 109.457 C 355.124 99.711 363.052 91.782 372.799 91.782 C 382.545 91.782 390.474 99.711 390.474 109.457 C 390.474 119.204 382.545 127.132 372.799 127.132 Z " fill="rgb(46,75,219)"/></g><path d=" M 376.95 109.457 C 376.95 111.75 375.091 113.608 372.799 113.608 C 370.506 113.608 368.648 111.75 368.648 109.457 C 368.648 107.165 370.506 105.307 372.799 105.307 C 375.091 105.307 376.95 107.165 376.95 109.457 Z " fill="rgb(46,75,219)"/></g></g></svg>