<?xml version="1.0" standalone="no"?><!-- Generator: Gravit.io --><svg xmlns="http://www.w3.org/2000/svg" xmlns:xlink="http://www.w3.org/1999/xlink" style="isolation:isolate" viewBox="0 0 500 500" width="500" height="500"><g><g><g><path d=" M 385.371 253.651 L 355.083 300.608 L 335.027 292.516 L 265.136 420 L 347.245 420 L 383.224 372.304 L 414.116 372.304 L 447.169 420 L 475 420 L 411.293 260.679 L 385.371 253.651 Z " fill="rgb(138,138,138)"/><path d=" M 409.957 380.253 L 387.191 380.253 L 357.206 420 L 437.503 420 L 409.957 380.253 Z " fill="rgb(96,96,96)"/><path d=" M 56.909 343.694 L 33.291 420 L 66.083 420 L 92.315 344.003 L 99.804 284.86 L 124.789 284.86 L 147.27 346.15 L 133.533 420 L 165.355 420 L 181 336.357 L 165.355 292.269 L 159.671 272.324 L 245.764 321.102 L 229.61 349.147 L 267.123 370.761 L 306.806 301.881 L 269.293 280.266 L 253.704 307.326 L 153.462 250.535 L 148.057 231.552 L 157.891 191.717 L 162.128 228.126 L 168.933 245.797 L 195.786 261.497 L 184.649 221.925 L 176.04 145.897 L 148.217 144.752 L 143.328 131.302 C 161.969 127.493 176 111.428 177.033 91.92 L 93.279 80.815 C 92.667 83.676 92.317 86.641 92.317 89.686 C 92.317 104.385 99.79 117.334 111.141 124.958 L 110.402 124.878 L 93.637 138.972 L 72.158 137.168 L 25 178.395 L 25 241.139 L 62.458 250.393 L 56.909 343.694 Z  M 48.849 218.348 L 48.849 199.611 L 64.747 185.087 L 64.747 221.925 L 48.849 218.348 Z " fill="rgb(138,138,138)"/><path d=" M 176.667 83.852 L 189.394 85.537 C 191.088 47.706 174.648 22.951 144.885 19.008 C 142.444 18.682 140.028 18.524 137.635 18.524 C 111.275 18.524 92.093 37.817 84.581 71.641 L 95.671 73.112 L 176.667 83.852 Z " fill="rgb(255,210,151)"/></g></g></g><g transform="matrix(1,0,0,1,58,439.877)"><text transform="matrix(1,0,0,1,0.497,28.799)" style="font-family:'Nova Flat';font-weight:400;font-size:30px;font-style:normal;fill:#8a8a8a;stroke:none;">Trabajando en esta sección</text></g></svg>